<svg width="48" height="41" viewBox="0 0 48 41" fill="none" xmlns="http://www.w3.org/2000/svg">
<g clip-path="url(#clip0_1062_156)">
<path d="M18.7181 0.540541L1.08108 18.1158C0.3861 18.8108 0 19.7529 0 20.7413V25.6062C0 26.5946 0.3861 27.5367 1.08108 28.2317L3.7529 30.8881C4.61776 31.7529 6.0695 31.5521 6.67181 30.4865L22.4247 2.76448C23.1197 1.52896 22.2394 0 20.8185 0H20.0309C19.5367 0 19.0734 0.200772 18.7181 0.540541Z" fill="#1A1A1A"/>
<path d="M46.9035 18.1158L29.2664 0.540541C28.9267 0.200772 28.4479 0 27.9691 0H27.1815C25.7607 0 24.8649 1.52896 25.5753 2.76448L41.3282 30.4865C41.9305 31.5521 43.3823 31.7375 44.2471 30.8881L46.9189 28.2317C47.6139 27.5367 48 26.5946 48 25.6062V20.7413C48 19.7529 47.6139 18.8108 46.9189 18.1158H46.9035Z" fill="#1A1A1A"/>
<path d="M12.6951 39.7995C13.3901 40.4944 14.3321 40.8805 15.3051 40.8805H32.6642C33.6372 40.8805 34.5793 40.4944 35.2742 39.7995L39.3206 35.7686C40.4943 34.6103 39.6603 32.6025 38.0078 32.6025H9.96149C8.30898 32.6025 7.49045 34.5948 8.64875 35.7686L12.6951 39.7995Z" fill="#1A1A1A"/>
<path d="M5.46729 32.602H5.4824L5.46729 32.5869V32.602Z" fill="#1A1A1A"/>
</g>
<defs>
<clipPath id="clip0_1062_156">
<rect width="48" height="41" fill="white"/>
</clipPath>
</defs>
</svg>
