<svg width="250" height="41" viewBox="0 0 250 41" fill="none" xmlns="http://www.w3.org/2000/svg">
<g clip-path="url(#clip0_1062_112)">
<path d="M78.6907 5.51416H73.051L61.9586 34.51L61.8651 34.7733H65.9469L68.7823 27.385H82.8815L85.7169 34.7733H89.8454L78.7374 5.63807L78.6907 5.51416ZM70.0131 24.1012L75.8397 8.85983L81.6352 24.1012H70.0131Z" fill="#1A1A1A"/>
<path d="M96.4821 17.6423V12.6858H92.6497V34.7889H96.5289V26.6106C96.5289 22.1342 97.2767 19.4391 98.9281 17.8437C100.143 16.6665 101.857 16.1399 104.147 16.2173H105.3V12.407H104.319C100.72 12.407 98.0245 14.2192 96.4821 17.6733V17.6423Z" fill="#1A1A1A"/>
<path d="M124.478 26.2544C124.026 30.1267 121.565 32.2487 117.561 32.2487C112.731 32.2487 110.379 29.4606 110.379 23.7141C110.379 17.9676 112.778 15.1796 117.701 15.1796C121.456 15.1796 123.73 17.1312 124.276 20.8331L124.307 21.0035H127.952V20.8021C127.547 15.195 123.777 11.9888 117.577 11.9888C110.831 11.9888 106.469 16.6046 106.469 23.7296C106.469 30.8547 110.722 35.4704 117.577 35.4704C123.746 35.4704 127.921 31.8769 128.202 26.3008V26.0995H124.509V26.2698L124.478 26.2544Z" fill="#1A1A1A"/>
<path d="M143.703 11.9733C139.855 11.9733 137.128 13.832 135.555 17.5029V3.99634H131.676V34.7734H135.555V26.2853C135.555 18.9744 137.985 15.2725 142.784 15.2725C146.273 15.2725 147.831 17.0693 147.831 21.1119V34.758H151.711V20.7092C151.711 14.8233 149.093 11.9578 143.703 11.9578V11.9733Z" fill="#1A1A1A"/>
<path d="M176.466 24.535C176.559 23.9929 176.559 23.5437 176.559 22.9861C176.559 16.2948 172.462 11.9888 166.106 11.9888C159.298 11.9888 155.076 16.4652 155.076 23.6831C155.076 30.9011 159.204 35.4704 166.106 35.4704C174.846 35.4704 176.279 29.693 176.513 27.9272L176.544 27.7103H172.976L172.945 27.8652C172.213 30.9011 169.954 32.45 166.23 32.45C161.603 32.45 159.204 29.9253 158.924 24.7209H176.435L176.466 24.566V24.535ZM159.017 21.7005C159.5 17.1932 161.837 15.0092 166.137 15.0092C170.437 15.0092 172.524 17.2551 172.743 21.7005H159.017Z" fill="#1A1A1A"/>
<path d="M185.284 7.85314H183.072L181.747 12.407L177.354 13.4602L177.198 13.4912V15.7991H181.389V29.4916C181.389 32.7443 182.293 34.7579 186.826 34.7579H192.17V31.5517H185.268V15.7836H192.466V12.6548H185.268V7.83765L185.284 7.85314Z" fill="#1A1A1A"/>
<path d="M208.154 11.9733C204.306 11.9733 201.58 13.832 200.006 17.5029V3.99634H196.127V34.7734H200.006V26.2853C200.006 18.9744 202.437 15.2725 207.235 15.2725C210.725 15.2725 212.283 17.0693 212.283 21.1119V34.758H216.162V20.7092C216.162 14.8233 213.545 11.9578 208.154 11.9578V11.9733Z" fill="#1A1A1A"/>
<path d="M224.715 12.6704H220.836V34.7735H224.715V12.6704Z" fill="#1A1A1A"/>
<path d="M225.198 5.51416H220.306V9.51038H225.198V5.51416Z" fill="#1A1A1A"/>
<path d="M246.308 26.084V26.2544C245.825 30.1267 243.379 32.2487 239.359 32.2487C234.53 32.2487 232.177 29.4606 232.177 23.7141C232.177 17.9676 234.577 15.1796 239.5 15.1796C243.254 15.1796 245.529 17.1312 246.074 20.8331L246.105 21.0035H249.751V20.8021C249.346 15.195 245.575 11.9888 239.359 11.9888C232.614 11.9888 228.251 16.6046 228.251 23.7296C228.251 30.8547 232.504 35.4704 239.359 35.4704C245.529 35.4704 249.704 31.8769 249.984 26.3008V26.0995H246.292L246.308 26.084Z" fill="#1A1A1A"/>
<g clip-path="url(#clip1_1062_112)">
<path d="M18.7181 0.540541L1.08108 18.1158C0.3861 18.8108 0 19.7529 0 20.7413V25.6062C0 26.5946 0.3861 27.5367 1.08108 28.2317L3.7529 30.8881C4.61776 31.7529 6.0695 31.5521 6.67181 30.4865L22.4247 2.76448C23.1197 1.52896 22.2394 0 20.8185 0H20.0309C19.5367 0 19.0734 0.200772 18.7181 0.540541Z" fill="#1A1A1A"/>
<path d="M46.9035 18.1161L29.2664 0.540785C28.9267 0.201016 28.4479 0.000244141 27.9691 0.000244141H27.1815C25.7607 0.000244141 24.8649 1.5292 25.5753 2.76472L41.3282 30.4868C41.9305 31.5524 43.3823 31.7377 44.2471 30.8883L46.9189 28.2319C47.6139 27.5369 48 26.5949 48 25.6064V20.7416C48 19.7532 47.6139 18.8111 46.9189 18.1161H46.9035Z" fill="#1A1A1A"/>
<path d="M12.6951 39.7995C13.3901 40.4944 14.3321 40.8805 15.3051 40.8805H32.6642C33.6372 40.8805 34.5793 40.4944 35.2742 39.7995L39.3206 35.7686C40.4943 34.6103 39.6603 32.6025 38.0078 32.6025H9.96149C8.30898 32.6025 7.49045 34.5948 8.64875 35.7686L12.6951 39.7995Z" fill="#1A1A1A"/>
<path d="M5.46729 32.6023H5.4824L5.46729 32.5872V32.6023Z" fill="#1A1A1A"/>
</g>
</g>
<defs>
<clipPath id="clip0_1062_112">
<rect width="250" height="41" fill="white"/>
</clipPath>
<clipPath id="clip1_1062_112">
<rect width="48" height="41" fill="white"/>
</clipPath>
</defs>
</svg>
