<?xml version="1.0" encoding="UTF-8"?>
<svg width="702px" height="257px" viewBox="0 0 702 257" version="1.1" xmlns="http://www.w3.org/2000/svg" xmlns:xlink="http://www.w3.org/1999/xlink">
    <title>archethic</title>
    <g id="Page-1" stroke="none" stroke-width="1" fill="none" fill-rule="evenodd">
        <text id="ARCHEthic" font-family="LMRoman12-Bold, Latin Modern Roman" font-size="72" font-weight="bold" fill="#000000">
            <tspan x="16.592" y="93">ARCH</tspan>
            <tspan x="257.864" y="93" font-family="LMRoman12-Italic, Latin Modern Roman" font-style="italic" font-weight="normal">Ethic</tspan>
            <tspan x="419" y="93" font-family="LMRoman12-Italic, Latin Modern Roman" font-size="12" font-style="italic" font-weight="normal"> </tspan>
        </text>
        <text id="Public-Blockchain" font-family="LMRoman17-Regular, Latin Modern Roman" font-size="48" font-weight="normal" fill="#2C2C2C">
            <tspan x="73.8773333" y="159">Public Blockchain </tspan>
        </text>
        <text id="by-UNIRIS" font-family="LMRoman17-Regular, Latin Modern Roman" font-size="48" font-weight="normal" fill="#00A4DB">
            <tspan x="173.980444" y="217">by </tspan>
            <tspan x="235.036444" y="217" font-family="ArquitectaBold, Arquitecta" font-weight="bold" letter-spacing="6.3">UNIRIS</tspan>
        </text>
        <g id="g839" transform="translate(451.000000, 22.000000)" fill="#00A4DB" fill-rule="nonzero">
            <path d="M59.1681109,32.6363781 C65.6286484,31.3141053 72.19818,30.6816701 78.7779765,30.7485771 C90.8941246,31.0374818 102.880357,33.4600417 114.245279,37.9169404 C139.123935,47.0229018 161.161007,63.1937646 177.949293,84.6631179 C179.662899,81.0694998 181.141581,77.3555791 182.374914,73.5475343 C183.958019,68.629029 185.122055,63.5702941 185.853078,58.4319248 L187,50.3526646 C181.134951,44.4003475 174.886653,38.8864995 168.300192,33.8509075 C158.71009,26.5255842 148.45328,20.2325061 137.682372,15.0653072 C125.689562,9.42830696 97.7894482,-3.69389029 61.8733499,0.99260873 C44.3127638,3.27918183 27.3917803,9.40183558 12.1817261,18.9729233 C9.02769181,21.0059397 5.94845673,23.1973731 3.0811528,25.4812163 L1.11143966,27.0521835 L0.812242733,29.6924647 C0.388380413,33.4680667 0.126583098,37.3756828 0.0268507871,41.2965003 C-0.343572682,60.0468921 3.12250698,78.660074 10.1870799,95.8579099 C12.7937126,102.211936 15.8613511,108.342534 19.3624525,114.194662 C20.3348425,115.831637 22.2920891,118.96037 25.1843261,123 C24.8851292,120.716157 24.6233319,118.432314 24.4114007,116.174873 C23.1336036,102.875783 23.1336036,89.473704 24.4114007,76.1746141 C25.2345984,67.5717337 26.6048727,59.0374541 28.512892,50.6298941 C29.0863528,48.0820228 29.6224139,45.9433951 30.0213432,44.3988306 C34.1827884,41.7935602 38.5351416,39.5464949 43.0364097,37.6793151 C48.2572059,35.4810338 53.656932,33.7930234 59.1681109,32.6363781 L59.1681109,32.6363781 Z" id="path833"></path>
            <path d="M141.430573,187.031045 C134.050546,190.500925 126.459122,193.455325 118.706133,195.874853 C116.359587,196.598908 114.371199,197.167808 112.913871,197.555694 C108.743023,195.093451 104.766033,192.287496 101.02059,189.16442 C96.6770002,185.543632 92.6550312,181.519088 89.0038077,177.139943 C84.73636,171.9813 80.9714552,166.389564 77.7650901,160.447902 C71.9924664,149.4223 68.0147548,137.466894 65.9953122,125.072668 C62.5341711,106.395514 62.5341711,87.1959949 65.9953122,68.5188412 C67.4903282,60.5126643 69.6050789,52.6471022 72.3186347,45 C68.5571513,45.224966 64.8146312,45.7174244 61.1169678,46.4739681 C56.3520317,47.4425007 51.6809336,48.8619577 47.1611976,50.7148586 L40.0474599,53.6498652 C35.2876897,73.7699677 33.879692,94.5990094 35.8854293,115.220355 C37.2686561,128.757588 40.4550178,160.253958 62.0432357,190.211713 C72.5880501,204.856462 85.9240341,217.048032 101.205844,226.013621 C104.416906,227.849616 107.70207,229.530457 110.987233,230.991496 L113.234977,232 L115.495071,230.991496 C118.767884,229.530457 122.053048,227.862546 125.27646,226.013621 C140.665042,217.181132 154.042673,204.962486 164.488469,190.198783 C168.321395,184.747673 171.752326,178.998961 174.751518,173.002489 C175.591334,171.321648 177.221566,168.037544 179,163.460485 C177.295667,164.843947 175.578984,166.201549 173.862301,167.494503 C163.710572,175.145302 152.844504,181.699575 141.430573,187.056904 L141.430573,187.031045 Z" id="path835"></path>
            <path d="M231.990673,40.5463053 C231.901893,36.6456017 231.622872,32.8489169 231.191657,29.1302461 L230.88727,26.5297771 L228.88339,24.982498 C225.953666,22.7330923 222.846383,20.5747029 219.624955,18.5593394 C204.21921,8.98220051 186.972419,2.94055719 169.071362,0.850145173 C162.458078,0.0809662547 155.79697,-0.166805685 149.146702,0.109011493 C147.295015,0.187025564 143.693103,0.408065434 138.860961,1.03217801 C140.915573,1.89033279 142.944819,2.78749462 144.936017,3.63264706 C164.256866,12.5448836 181.98365,24.7147091 197.379345,39.6361411 C199.205666,41.4174624 200.702235,42.9387368 201.792955,44.0699408 C201.833995,49.1129471 201.490514,54.1515288 200.765649,59.139659 C199.920974,64.9605823 198.566907,70.6917385 196.71984,76.2637477 C194.525424,82.7445634 191.708709,88.9859707 188.311151,94.8961085 C181.908,105.70143 173.794154,115.337983 164.302634,123.410252 C144.07401,141.402654 119.405925,153.341228 93,157.918476 C95.121385,161.237064 97.4604123,164.403938 100.000899,167.397186 C103.282055,171.254025 106.898894,174.796615 110.806634,177.981095 L116.957786,183 C124.878582,180.653721 132.62974,177.742771 140.154606,174.288429 C151.142999,169.219943 161.607923,163.034555 171.392312,155.825098 C182.185365,147.763644 207.309968,129.027265 221.666884,94.2849983 C228.690894,77.2951492 232.205999,58.9978761 231.990673,40.5463053 Z" id="path837"></path>
        </g>
    </g>
</svg>