<?xml version="1.0" encoding="UTF-8" standalone="no"?>
<!-- Created with Inkscape (http://www.inkscape.org/) -->

<svg
   xmlns:dc="http://purl.org/dc/elements/1.1/"
   xmlns:cc="http://creativecommons.org/ns#"
   xmlns:rdf="http://www.w3.org/1999/02/22-rdf-syntax-ns#"
   xmlns:svg="http://www.w3.org/2000/svg"
   xmlns="http://www.w3.org/2000/svg"
   xmlns:sodipodi="http://sodipodi.sourceforge.net/DTD/sodipodi-0.dtd"
   xmlns:inkscape="http://www.inkscape.org/namespaces/inkscape"
   version="1.1"
   id="svg2"
   xml:space="preserve"
   width="173.6788"
   height="198.14479"
   viewBox="0 0 173.6788 198.14479"
   sodipodi:docname="Logo Paris 2024.svg"
   inkscape:version="0.92.2 5c3e80d, 2017-08-06"
   inkscape:export-filename="/Users/tevabaude/Downloads/Logo Paris 2024.png"
   inkscape:export-xdpi="718"
   inkscape:export-ydpi="718"><metadata
     id="metadata8"><rdf:RDF><cc:Work
         rdf:about=""><dc:format>image/svg+xml</dc:format><dc:type
           rdf:resource="http://purl.org/dc/dcmitype/StillImage" /><dc:title /></cc:Work></rdf:RDF></metadata><defs
     id="defs6" /><sodipodi:namedview
     pagecolor="#ffffff"
     bordercolor="#666666"
     borderopacity="1"
     objecttolerance="10"
     gridtolerance="10"
     guidetolerance="10"
     inkscape:pageopacity="0"
     inkscape:pageshadow="2"
     inkscape:window-width="1280"
     inkscape:window-height="682"
     id="namedview4"
     showgrid="false"
     inkscape:zoom="0.84096496"
     inkscape:cx="-261.47305"
     inkscape:cy="185.76267"
     inkscape:window-x="0"
     inkscape:window-y="1"
     inkscape:window-maximized="1"
     inkscape:current-layer="g10"
     fit-margin-left="5"
     fit-margin-top="5"
     fit-margin-bottom="5"
     fit-margin-right="5" /><g
     id="g10"
     inkscape:groupmode="layer"
     inkscape:label="Paris2024_Nouvel_embleme_Dossier_de_presse"
     transform="matrix(1.3333333,0,0,-1.3333333,-188.3856,697.58692)"><g
       id="g1068"><g
         transform="translate(151.1962,430.5627)"
         id="g5524"><path
           inkscape:connector-curvature="0"
           id="path5526"
           style="fill:#000000;fill-opacity:1;fill-rule:nonzero;stroke:none"
           d="m 0,0 c -0.914,0.44 -1.901,0.491 -2.895,0.491 h -3.262 v -12.276 h 1.907 c 0,0.695 -0.046,1.417 0.252,2.066 0.481,1.045 1.601,1.547 2.579,2.021 1.049,0.507 2.212,1.002 2.908,1.985 0.617,0.871 0.785,2.025 0.605,3.066 C 1.887,-1.457 1.073,-0.517 0,0 M -0.094,-4.693 C -0.547,-5.371 -1.313,-5.752 -2.023,-6.106 -2.798,-6.493 -3.596,-6.877 -4.25,-7.457 v 6.173 h 1.808 c 1.012,0 2.127,-0.311 2.527,-1.351 0.244,-0.634 0.202,-1.485 -0.179,-2.058" /></g><g
         transform="translate(165.2189,430.7137)"
         id="g5528"><path
           inkscape:connector-curvature="0"
           id="path5530"
           style="fill:#000000;fill-opacity:1;fill-rule:nonzero;stroke:none"
           d="m 0,0 c -1.652,0.934 -4.02,0.658 -5.297,-0.781 -0.621,-0.699 -0.936,-1.599 -0.992,-2.524 -0.014,-0.234 -0.009,-8.631 -0.009,-8.631 h 1.888 v 4.067 c 1.112,0.141 2.357,0.033 3.29,-0.645 0.836,-0.607 1.203,-1.563 1.205,-2.573 0,-0.283 0,-0.849 0,-0.849 h 1.889 v 8.232 C 1.972,-2.194 1.353,-0.765 0,0 m -0.019,-7.328 c -1.122,1.138 -2.843,1.536 -4.391,1.289 v 2.006 c 0,0.369 -0.009,0.738 0.086,1.099 0.181,0.692 0.707,1.263 1.387,1.491 0.709,0.239 1.53,0.131 2.132,-0.318 0.604,-0.451 0.883,-1.144 0.89,-1.884 0.005,-0.576 0,-1.153 0,-1.729 v -2.073 c -0.035,0.039 -0.067,0.082 -0.104,0.119" /></g><g
         transform="translate(180.1765,423.3387)"
         id="g5532"><path
           inkscape:connector-curvature="0"
           id="path5534"
           style="fill:#000000;fill-opacity:1;fill-rule:nonzero;stroke:none"
           d="M 0,0 C -0.218,0.116 -0.451,0.212 -0.695,0.289 -0.089,0.622 0.511,1.033 0.935,1.588 1.328,2.103 1.552,2.697 1.623,3.339 1.77,4.685 1.33,5.968 0.222,6.789 -1.254,7.885 -3.121,7.715 -4.854,7.715 H -6.657 V -4.561 h 1.907 c 0,0.364 -0.013,0.731 0.004,1.095 0.038,0.811 0.396,1.594 1.105,2.028 0.693,0.423 1.639,0.473 2.378,0.142 0.745,-0.334 1.228,-1.05 1.349,-1.846 0.071,-0.464 0.037,-0.951 0.037,-1.419 h 1.926 c 0,0.674 0.037,1.36 -0.112,2.022 C 1.69,-1.448 0.986,-0.527 0,0 m -2.88,5.94 c 1.214,0 2.442,-0.593 2.574,-1.921 C -0.242,3.38 -0.382,2.747 -0.807,2.256 -1.272,1.72 -1.965,1.396 -2.593,1.094 -3.355,0.727 -4.12,0.345 -4.75,-0.228 V 5.94 Z" /></g><g
         transform="translate(188.1558,429.335)"
         id="g5536"><path
           inkscape:connector-curvature="0"
           id="path5538"
           style="fill:#000000;fill-opacity:1;fill-rule:nonzero;stroke:none"
           d="M 0,0 C 0.622,0.166 1.266,0.243 1.907,0.283 V 1.719 H 0 Z" /></g><g
         transform="translate(188.1558,428.2586)"
         id="g5540"><path
           inkscape:connector-curvature="0"
           id="path5542"
           style="fill:#000000;fill-opacity:1;fill-rule:nonzero;stroke:none"
           d="M 0,0 V -9.481 H 1.907 V 0.283 C 1.266,0.256 0.621,0.162 0,0" /></g><g
         transform="translate(202.7925,424.6701)"
         id="g5544"><path
           inkscape:connector-curvature="0"
           id="path5546"
           style="fill:#000000;fill-opacity:1;fill-rule:nonzero;stroke:none"
           d="m 0,0 c -0.684,0.537 -1.503,0.846 -2.312,1.142 -0.75,0.273 -1.622,0.562 -2.164,1.181 -0.501,0.571 -0.389,1.476 0.127,1.995 0.534,0.536 1.391,0.656 2.094,0.433 0.794,-0.251 1.273,-0.966 1.273,-1.786 h 1.888 c 0,0.9 -0.288,1.765 -0.907,2.428 -0.6,0.642 -1.427,1.024 -2.292,1.137 C -3.192,6.648 -4.124,6.531 -4.919,6.078 -5.665,5.654 -6.294,4.98 -6.561,4.153 -6.816,3.363 -6.76,2.377 -6.354,1.645 -5.901,0.83 -5.083,0.34 -4.248,-0.017 c 0.908,-0.387 1.955,-0.625 2.767,-1.204 0.327,-0.233 0.599,-0.532 0.696,-0.931 0.095,-0.39 0.06,-0.83 -0.121,-1.19 -0.441,-0.877 -1.539,-1.145 -2.438,-0.972 -1.008,0.193 -1.736,1.035 -1.736,2.067 h -1.87 c 0,-0.999 0.325,-1.941 1.04,-2.652 0.708,-0.706 1.691,-1.087 2.678,-1.166 1.035,-0.083 2.103,0.127 2.96,0.733 0.788,0.559 1.32,1.425 1.423,2.39 C 1.27,-1.816 0.906,-0.712 0,0" /></g><g
         transform="translate(220.5643,424.4058)"
         id="g5548"><path
           inkscape:connector-curvature="0"
           id="path5550"
           style="fill:#000000;fill-opacity:1;fill-rule:nonzero;stroke:none"
           d="M 0,0 C 0.422,0.524 0.833,1.076 1.112,1.692 1.387,2.3 1.486,2.973 1.412,3.636 1.271,4.898 0.398,5.945 -0.74,6.465 -1.903,6.996 -3.368,6.971 -4.506,6.389 -5.655,5.802 -6.479,4.681 -6.548,3.375 -6.619,2.04 -5.998,0.86 -4.948,0.057 l 1.076,1.378 c -0.386,0.369 -0.692,0.816 -0.78,1.352 -0.085,0.516 0.003,1.037 0.317,1.462 0.616,0.833 1.853,1.084 2.768,0.624 0.457,-0.229 0.841,-0.627 1.005,-1.116 0.171,-0.509 0.09,-1.094 -0.127,-1.576 -0.22,-0.487 -0.57,-0.903 -0.901,-1.317 -1.275,-1.595 -2.55,-3.189 -3.824,-4.783 -0.455,-0.57 -0.911,-1.14 -1.366,-1.709 h 8.631 v 1.756 H -3.1 Z" /></g><g
         transform="translate(238.5062,429.4107)"
         id="g5552"><path
           inkscape:connector-curvature="0"
           id="path5554"
           style="fill:#000000;fill-opacity:1;fill-rule:nonzero;stroke:none"
           d="m 0,0 c -1.902,1.859 -4.881,2.359 -7.295,1.245 -2.435,-1.124 -3.901,-3.709 -3.648,-6.373 0.248,-2.612 2.2,-4.851 4.737,-5.494 2.574,-0.652 5.398,0.308 6.939,2.492 1.549,2.196 1.504,5.279 -0.113,7.426 C 0.431,-0.454 0.224,-0.219 0,0 m -0.425,-6.261 c -0.745,-1.749 -2.503,-2.873 -4.408,-2.758 -1.846,0.11 -3.449,1.433 -3.984,3.192 -0.549,1.806 0.103,3.823 1.601,4.967 1.505,1.148 3.636,1.189 5.191,0.112 1.738,-1.204 2.429,-3.563 1.6,-5.513" /></g><g
         transform="translate(252.5199,424.4058)"
         id="g5556"><path
           inkscape:connector-curvature="0"
           id="path5558"
           style="fill:#000000;fill-opacity:1;fill-rule:nonzero;stroke:none"
           d="M 0,0 C 0.422,0.524 0.833,1.076 1.112,1.692 1.387,2.3 1.486,2.973 1.412,3.636 1.27,4.898 0.398,5.945 -0.74,6.465 -1.903,6.996 -3.368,6.971 -4.506,6.389 -5.655,5.802 -6.479,4.681 -6.548,3.375 -6.619,2.04 -5.999,0.86 -4.948,0.057 l 1.076,1.378 c -0.386,0.369 -0.692,0.816 -0.78,1.352 -0.085,0.516 0.002,1.037 0.317,1.462 0.616,0.833 1.853,1.084 2.768,0.624 C -1.11,4.644 -0.726,4.246 -0.562,3.757 -0.391,3.248 -0.472,2.663 -0.689,2.181 -0.909,1.694 -1.259,1.278 -1.591,0.864 -2.865,-0.731 -4.14,-2.325 -5.414,-3.919 -5.87,-4.489 -6.325,-5.059 -6.78,-5.628 h 8.631 v 1.756 H -3.1 Z" /></g><g
         transform="translate(265.9663,427.7676)"
         id="g5560"><path
           inkscape:connector-curvature="0"
           id="path5562"
           style="fill:#000000;fill-opacity:1;fill-rule:nonzero;stroke:none"
           d="m 0,0 v -4.161 c -0.908,0.647 -2.043,0.844 -2.993,1.413 -0.821,0.491 -1.082,1.35 -1.086,2.259 -0.005,0.89 0,3.775 0,3.775 h -1.908 c 0,0 -0.002,-2.555 0,-3.833 0.002,-1.308 0.324,-2.587 1.395,-3.429 0.66,-0.519 1.454,-0.839 2.241,-1.114 0.702,-0.246 1.448,-0.554 1.93,-1.147 C -0.042,-6.704 0,-7.263 0,-7.839 V -8.99 H 1.832 V 0 Z" /></g><g
         transform="translate(205.5795,388.4116)"
         id="g5564"><path
           inkscape:connector-curvature="0"
           id="path5566"
           style="fill:#fcb030;fill-opacity:1;fill-rule:nonzero;stroke:none"
           d="m 0,0 c 0,-5.566 -4.515,-10.08 -10.081,-10.08 -5.567,0 -10.078,4.514 -10.078,10.08 0,5.567 4.511,10.079 10.078,10.079 C -4.515,10.079 0,5.567 0,0 m -10.081,8.399 c -4.638,0 -8.398,-3.761 -8.398,-8.399 0,-4.638 3.76,-8.399 8.398,-8.399 4.64,0 8.401,3.761 8.401,8.399 0,4.638 -3.761,8.399 -8.401,8.399" /></g><g
         transform="translate(227.4189,388.4116)"
         id="g5568"><path
           inkscape:connector-curvature="0"
           id="path5570"
           style="fill:#00a652;fill-opacity:1;fill-rule:nonzero;stroke:none"
           d="m 0,0 c 0,-5.566 -4.514,-10.08 -10.08,-10.08 -5.567,0 -10.08,4.514 -10.08,10.08 0,5.567 4.513,10.079 10.08,10.079 C -4.514,10.079 0,5.567 0,0 m -10.08,8.399 c -4.64,0 -8.399,-3.761 -8.399,-8.399 0,-4.638 3.759,-8.399 8.399,-8.399 4.639,0 8.4,3.761 8.4,8.399 0,4.638 -3.761,8.399 -8.4,8.399" /></g><g
         transform="translate(184.5818,407.7274)"
         id="g5572"><path
           inkscape:connector-curvature="0"
           id="path5574"
           style="fill:#0082c7;fill-opacity:1;fill-rule:nonzero;stroke:none"
           d="m 0,0 c -5.568,0 -10.08,-4.51 -10.08,-10.077 0,-5.566 4.512,-10.079 10.08,-10.079 0.294,0 0.583,0.017 0.872,0.041 -0.02,0.263 -0.034,0.53 -0.034,0.799 0,0.301 0.017,0.593 0.041,0.885 -0.29,-0.028 -0.582,-0.043 -0.879,-0.043 -4.64,0 -8.401,3.758 -8.401,8.397 0,4.64 3.761,8.401 8.401,8.401 4.638,0 8.399,-3.761 8.399,-8.401 0,-3.725 -2.426,-6.881 -5.786,-7.981 -0.061,-0.411 -0.095,-0.832 -0.095,-1.258 0,-0.175 0.007,-0.344 0.017,-0.517 4.339,1.127 7.542,5.069 7.542,9.756 C 10.077,-4.51 5.566,0 0,0" /></g><g
         transform="translate(228.2572,407.7294)"
         id="g5576"><path
           inkscape:connector-curvature="0"
           id="path5578"
           style="fill:#e8384f;fill-opacity:1;fill-rule:nonzero;stroke:none"
           d="m 0,0 c -5.296,0 -9.635,-4.084 -10.044,-9.276 0.568,-0.049 1.124,-0.144 1.662,-0.286 0.267,4.398 3.918,7.884 8.382,7.884 4.641,0 8.401,-3.761 8.401,-8.399 0,-4.641 -3.76,-8.399 -8.401,-8.399 -4.209,0 -7.699,3.099 -8.304,7.14 -0.554,0.181 -1.136,0.305 -1.734,0.369 0.449,-5.148 4.772,-9.191 10.038,-9.191 5.566,0 10.079,4.513 10.079,10.081 C 10.079,-4.512 5.566,0 0,0" /></g><g
         transform="translate(206.4196,407.7294)"
         id="g5580"><path
           inkscape:connector-curvature="0"
           id="path5582"
           style="fill:#000000;fill-opacity:1;fill-rule:nonzero;stroke:none"
           d="m 0,0 c -5.298,0 -9.638,-4.089 -10.046,-9.276 0.57,-0.051 1.124,-0.148 1.664,-0.286 0.267,4.398 3.916,7.884 8.382,7.884 4.639,0 8.399,-3.761 8.399,-8.399 0,-3.727 -2.426,-6.883 -5.784,-7.983 -0.06,-0.413 -0.095,-0.832 -0.095,-1.258 0,-0.174 0.005,-0.344 0.017,-0.517 4.337,1.127 7.542,5.069 7.542,9.758 C 10.079,-4.512 5.567,0 0,0" /></g><g
         transform="translate(207.2594,388.4116)"
         id="g5584"><path
           inkscape:connector-curvature="0"
           id="path5586"
           style="fill:#000000;fill-opacity:1;fill-rule:nonzero;stroke:none"
           d="M 0,0 C 0,0.301 0.015,0.593 0.041,0.885 -0.25,0.857 -0.543,0.842 -0.84,0.842 c -4.212,0 -7.699,3.099 -8.308,7.139 -0.554,0.182 -1.132,0.305 -1.73,0.368 0.449,-5.146 4.771,-9.189 10.038,-9.189 0.294,0 0.585,0.017 0.872,0.041 C 0.01,-0.536 0,-0.269 0,0" /></g><g
         transform="translate(210.7446,452.0781)"
         id="g5588"><path
           inkscape:connector-curvature="0"
           id="path5590"
           style="fill:#d6c278;fill-opacity:1;fill-rule:nonzero;stroke:none"
           d="M 0,0 C -1.054,0.392 -2.827,0.428 -4.326,-0.792 -5.825,0.428 -7.598,0.392 -8.652,0 c -0.881,-0.328 -1.572,-0.547 -2.87,-0.536 1.286,-2.681 4.026,-4.53 7.196,-4.53 3.17,0 5.91,1.849 7.196,4.53 C 1.572,-0.547 0.881,-0.328 0,0" /></g><g
         transform="translate(206.4196,519.4402)"
         id="g5592"><path
           inkscape:connector-curvature="0"
           id="path5594"
           style="fill:#d6c278;fill-opacity:1;fill-rule:nonzero;stroke:none"
           d="m 0,0 c -21.695,0 -39.284,-17.588 -39.284,-39.284 0,-18.597 12.925,-34.177 30.282,-38.247 -13.793,7.379 -19.417,24.299 -12.766,38.472 1.075,-5.597 4.724,-10.584 10.176,-13.172 -7.111,16.632 -1.875,36.184 12.8,46.997 -2.887,-9.885 1.547,-18.93 11.058,-25.759 10.879,-7.81 11.339,-23.747 1.738,-32.362 3.814,0.888 7.362,2.988 10.012,6.203 C 22.381,-65.576 17.099,-73.198 9,-77.531 c 17.358,4.07 30.282,19.65 30.282,38.247 C 39.282,-17.588 21.695,0 0,0" /></g><g
         transform="translate(235.0679,444.4763)"
         id="g5596"><path
           inkscape:connector-curvature="0"
           id="path5598"
           style="fill:#d6c278;fill-opacity:1;fill-rule:nonzero;stroke:none"
           d="M 0,0 H 0.742 V -2.569 H 1.099 V 0 H 1.841 V 0.335 H 0 Z M 5.125,0.335 C 4.571,0.335 4.129,0.094 3.914,-0.304 3.7,0.094 3.258,0.335 2.703,0.335 H 2.511 v -2.904 h 0.358 v 2.546 h 0.013 c 0.519,0 0.854,-0.366 0.854,-0.929 v -0.723 h 0.357 v 0.723 c 0,0.563 0.335,0.929 0.853,0.929 h 0.013 v -2.546 h 0.358 v 2.904 z" /></g></g></g></svg>