<svg xmlns="http://www.w3.org/2000/svg" xmlns:xlink="http://www.w3.org/1999/xlink" viewBox="0 0 330.23 129.39"><defs><clipPath id="a" transform="translate(-1.12 -5.5)"><rect x="168.26" y="8.74" width="76.21" height="118.4" style="fill:none"/></clipPath><clipPath id="aj" transform="translate(-1.12 -5.5)"><rect x="168.26" y="8.74" width="76.21" height="118.4" style="fill:none;stroke:#9c9b9b;stroke-miterlimit:10;stroke-width:0.25px;stroke-dasharray:1"/></clipPath><clipPath id="ak" transform="translate(-1.12 -5.5)"><rect x="17.22" y="8.66" width="137.4" height="118.4" style="fill:none"/></clipPath><clipPath id="cu" transform="translate(-1.12 -5.5)"><rect x="17.22" y="8.66" width="137.4" height="118.4" style="fill:none;stroke:#9c9b9b;stroke-miterlimit:10;stroke-width:0.25px;stroke-dasharray:1"/></clipPath></defs><title>growthEN</title><path d="M168.28,127.11h76.16" transform="translate(-1.12 -5.5)" style="fill:none;stroke:#333;stroke-miterlimit:10"/><path d="M17.26,127.05h137.3" transform="translate(-1.12 -5.5)" style="fill:none;stroke:#333;stroke-miterlimit:10"/><path d="M168.28,8.9V127.09" transform="translate(-1.12 -5.5)" style="fill:none;stroke:#cccbcb;stroke-miterlimit:10"/><path d="M168.28,97.45h76.16" transform="translate(-1.12 -5.5)" style="fill:none;stroke:#f2f2f2;stroke-miterlimit:10"/><path d="M168.28,67.8h76.16" transform="translate(-1.12 -5.5)" style="fill:none;stroke:#f2f2f2;stroke-miterlimit:10"/><path d="M168.28,38.16h76.16" transform="translate(-1.12 -5.5)" style="fill:none;stroke:#f2f2f2;stroke-miterlimit:10"/><g style="clip-path:url(#a)"><path d="M168.26,84.18l38.11,2.26,38.1,4.07v36.63H168.26Z" transform="translate(-1.12 -5.5)" style="fill:#01a3db"/></g><g style="clip-path:url(#a)"><path d="M168.26,80.35l38.11,2.46,38.1,4.44v3.26l-38.1-4.07-38.11-2.26Z" transform="translate(-1.12 -5.5)" style="fill:#d34d94"/></g><g style="clip-path:url(#a)"><path d="M168.26,67.33l38.11,2.37,38.1,5.74V87.25l-38.1-4.44-38.11-2.46Z" transform="translate(-1.12 -5.5)" style="fill:#4975b4"/></g><g style="clip-path:url(#a)"><path d="M168.26,64.86l38.11,2.5,38.1,6v2.11l-38.1-5.74-38.11-2.37Z" transform="translate(-1.12 -5.5)" style="fill:#fbbe0a"/></g><g style="clip-path:url(#a)"><path d="M168.26,61l38.11,2.7,38.1,6.34v3.26l-38.1-6-38.11-2.5Z" transform="translate(-1.12 -5.5)" style="fill:#f2e500"/></g><g style="clip-path:url(#a)"><path d="M168.26,54.73l38.11,3,38.1,6.93v5.37l-38.1-6.34L168.26,61Z" transform="translate(-1.12 -5.5)" style="fill:#71ad47"/></g><g style="clip-path:url(#a)"><path d="M168.26,48.66l38.11-.49,38.1,7.9V64.7l-38.1-6.93-38.11-3Z" transform="translate(-1.12 -5.5)" style="fill:#e37c3a"/></g><g style="clip-path:url(#a)"><path d="M168.26,25.94,206.37,23l38.1,10.41V56.07l-38.1-7.9-38.11.49Z" transform="translate(-1.12 -5.5)" style="fill:#f1ba3f"/></g><g style="clip-path:url(#a)"><path d="M168.26,20.61l38.11-9.15,38.1-.69V33.44L206.37,23l-38.11,2.91Z" transform="translate(-1.12 -5.5)" style="fill:#b3b2b3"/></g><g style="clip-path:url(#a)"><path d="M168.68,84.18c0,.62-.19,1.12-.42,1.12s-.43-.5-.43-1.12.19-1.13.43-1.13S168.68,83.55,168.68,84.18Z" transform="translate(-1.12 -5.5)" style="fill-opacity:0"/></g><g style="clip-path:url(#a)"><path d="M206.79,86.44c0,.62-.19,1.12-.42,1.12s-.43-.5-.43-1.12.19-1.13.43-1.13S206.79,85.82,206.79,86.44Z" transform="translate(-1.12 -5.5)" style="fill-opacity:0"/></g><g style="clip-path:url(#a)"><path d="M244.9,90.51c0,.62-.19,1.12-.43,1.12s-.42-.5-.42-1.12.19-1.13.42-1.13S244.9,89.89,244.9,90.51Z" transform="translate(-1.12 -5.5)" style="fill-opacity:0"/></g><g style="clip-path:url(#a)"><path d="M168.68,80.35c0,.62-.19,1.13-.42,1.13s-.43-.51-.43-1.13.19-1.12.43-1.12S168.68,79.73,168.68,80.35Z" transform="translate(-1.12 -5.5)" style="fill-opacity:0"/></g><g style="clip-path:url(#a)"><path d="M206.79,82.81c0,.63-.19,1.13-.42,1.13s-.43-.5-.43-1.13.19-1.12.43-1.12S206.79,82.19,206.79,82.81Z" transform="translate(-1.12 -5.5)" style="fill-opacity:0"/></g><g style="clip-path:url(#a)"><path d="M244.9,87.25c0,.62-.19,1.12-.43,1.12s-.42-.5-.42-1.12.19-1.13.42-1.13S244.9,86.63,244.9,87.25Z" transform="translate(-1.12 -5.5)" style="fill-opacity:0"/></g><g style="clip-path:url(#a)"><path d="M168.68,67.33c0,.62-.19,1.13-.42,1.13s-.43-.51-.43-1.13.19-1.13.43-1.13S168.68,66.71,168.68,67.33Z" transform="translate(-1.12 -5.5)" style="fill-opacity:0"/></g><g style="clip-path:url(#a)"><path d="M206.79,69.7c0,.62-.19,1.13-.42,1.13s-.43-.51-.43-1.13.19-1.13.43-1.13S206.79,69.08,206.79,69.7Z" transform="translate(-1.12 -5.5)" style="fill-opacity:0"/></g><g style="clip-path:url(#a)"><path d="M244.9,75.44c0,.63-.19,1.13-.43,1.13s-.42-.5-.42-1.13.19-1.12.42-1.12S244.9,74.82,244.9,75.44Z" transform="translate(-1.12 -5.5)" style="fill-opacity:0"/></g><g style="clip-path:url(#a)"><path d="M168.68,64.86c0,.62-.19,1.12-.42,1.12s-.43-.5-.43-1.12.19-1.13.43-1.13S168.68,64.23,168.68,64.86Z" transform="translate(-1.12 -5.5)" style="fill-opacity:0"/></g><g style="clip-path:url(#a)"><path d="M206.79,67.36c0,.62-.19,1.12-.42,1.12s-.43-.5-.43-1.12.19-1.13.43-1.13S206.79,66.73,206.79,67.36Z" transform="translate(-1.12 -5.5)" style="fill-opacity:0"/></g><g style="clip-path:url(#a)"><path d="M244.9,73.33c0,.63-.19,1.13-.43,1.13s-.42-.5-.42-1.13.19-1.12.42-1.12S244.9,72.71,244.9,73.33Z" transform="translate(-1.12 -5.5)" style="fill-opacity:0"/></g><g style="clip-path:url(#a)"><path d="M168.68,61c0,.62-.19,1.13-.42,1.13s-.43-.51-.43-1.13.19-1.12.43-1.12S168.68,60.41,168.68,61Z" transform="translate(-1.12 -5.5)" style="fill-opacity:0"/></g><g style="clip-path:url(#a)"><path d="M206.79,63.73c0,.62-.19,1.13-.42,1.13s-.43-.51-.43-1.13.19-1.12.43-1.12S206.79,63.11,206.79,63.73Z" transform="translate(-1.12 -5.5)" style="fill-opacity:0"/></g><g style="clip-path:url(#a)"><path d="M244.9,70.07c0,.63-.19,1.13-.43,1.13s-.42-.5-.42-1.13.19-1.12.42-1.12S244.9,69.45,244.9,70.07Z" transform="translate(-1.12 -5.5)" style="fill-opacity:0"/></g><g style="clip-path:url(#a)"><path d="M168.68,54.73c0,.62-.19,1.13-.42,1.13s-.43-.51-.43-1.13.19-1.12.43-1.12S168.68,54.11,168.68,54.73Z" transform="translate(-1.12 -5.5)" style="fill-opacity:0"/></g><g style="clip-path:url(#a)"><path d="M206.79,57.77c0,.62-.19,1.12-.42,1.12s-.43-.5-.43-1.12.19-1.13.43-1.13S206.79,57.14,206.79,57.77Z" transform="translate(-1.12 -5.5)" style="fill-opacity:0"/></g><g style="clip-path:url(#a)"><path d="M244.9,64.7c0,.62-.19,1.13-.43,1.13s-.42-.51-.42-1.13.19-1.12.42-1.12S244.9,64.08,244.9,64.7Z" transform="translate(-1.12 -5.5)" style="fill-opacity:0"/></g><g style="clip-path:url(#a)"><path d="M168.68,48.66c0,.62-.19,1.12-.42,1.12s-.43-.5-.43-1.12.19-1.13.43-1.13S168.68,48,168.68,48.66Z" transform="translate(-1.12 -5.5)" style="fill-opacity:0"/></g><g style="clip-path:url(#a)"><path d="M206.79,48.17c0,.63-.19,1.13-.42,1.13s-.43-.5-.43-1.13.19-1.12.43-1.12S206.79,47.55,206.79,48.17Z" transform="translate(-1.12 -5.5)" style="fill-opacity:0"/></g><g style="clip-path:url(#a)"><path d="M244.9,56.07c0,.62-.19,1.13-.43,1.13s-.42-.51-.42-1.13.19-1.12.42-1.12S244.9,55.45,244.9,56.07Z" transform="translate(-1.12 -5.5)" style="fill-opacity:0"/></g><g style="clip-path:url(#a)"><path d="M168.68,25.94c0,.62-.19,1.12-.42,1.12s-.43-.5-.43-1.12.19-1.13.43-1.13S168.68,25.31,168.68,25.94Z" transform="translate(-1.12 -5.5)" style="fill-opacity:0"/></g><g style="clip-path:url(#a)"><path d="M206.79,23c0,.62-.19,1.12-.42,1.12s-.43-.5-.43-1.12.19-1.13.43-1.13S206.79,22.4,206.79,23Z" transform="translate(-1.12 -5.5)" style="fill-opacity:0"/></g><g style="clip-path:url(#a)"><path d="M244.9,33.44c0,.62-.19,1.12-.43,1.12s-.42-.5-.42-1.12.19-1.13.42-1.13S244.9,32.82,244.9,33.44Z" transform="translate(-1.12 -5.5)" style="fill-opacity:0"/></g><g style="clip-path:url(#a)"><path d="M168.68,20.61c0,.62-.19,1.13-.42,1.13s-.43-.51-.43-1.13.19-1.13.43-1.13S168.68,20,168.68,20.61Z" transform="translate(-1.12 -5.5)" style="fill-opacity:0"/></g><g style="clip-path:url(#a)"><path d="M206.79,11.46c0,.62-.19,1.12-.42,1.12s-.43-.5-.43-1.12.19-1.13.43-1.13S206.79,10.84,206.79,11.46Z" transform="translate(-1.12 -5.5)" style="fill-opacity:0"/></g><g style="clip-path:url(#aj)"><ellipse cx="243.36" cy="5.27" rx="0.42" ry="1.13" style="opacity:0"/><path d="M244.9,10.77c0,.62-.19,1.12-.43,1.12s-.42-.5-.42-1.12.19-1.13.42-1.13S244.9,10.14,244.9,10.77Z" transform="translate(-1.12 -5.5)" style="fill:none;stroke:#9c9b9b;stroke-miterlimit:10;stroke-width:0.25px;stroke-dasharray:0.8512457609176636,0.8512457609176636"/></g><rect x="167.14" y="3.24" width="76.21" height="118.4" style="fill:none;stroke:#9c9b9b;stroke-miterlimit:10;stroke-width:0.25px;stroke-dasharray:1"/><path d="M17.26,8.82V127" transform="translate(-1.12 -5.5)" style="fill:none;stroke:#cccbcb;stroke-miterlimit:10"/><path d="M154.56,8.82V127" transform="translate(-1.12 -5.5)" style="fill:none;stroke:#cccbcb;stroke-miterlimit:10"/><line x1="16.14" y1="91.87" x2="16.64" y2="91.87" style="fill:none;stroke:#9c9b9b;stroke-miterlimit:10;stroke-width:0.25px"/><line x1="17.63" y1="91.87" x2="152.45" y2="91.87" style="fill:none;stroke:#9c9b9b;stroke-miterlimit:10;stroke-width:0.25px;stroke-dasharray:0.994944155216217,0.994944155216217"/><line x1="152.95" y1="91.87" x2="153.45" y2="91.87" style="fill:none;stroke:#9c9b9b;stroke-miterlimit:10;stroke-width:0.25px"/><line x1="16.14" y1="62.23" x2="16.64" y2="62.23" style="fill:none;stroke:#9c9b9b;stroke-miterlimit:10;stroke-width:0.25px"/><line x1="17.63" y1="62.23" x2="152.45" y2="62.23" style="fill:none;stroke:#9c9b9b;stroke-miterlimit:10;stroke-width:0.25px;stroke-dasharray:0.994944155216217,0.994944155216217"/><line x1="152.95" y1="62.23" x2="153.45" y2="62.23" style="fill:none;stroke:#9c9b9b;stroke-miterlimit:10;stroke-width:0.25px"/><line x1="16.14" y1="32.59" x2="16.64" y2="32.59" style="fill:none;stroke:#9c9b9b;stroke-miterlimit:10;stroke-width:0.25px"/><line x1="17.63" y1="32.59" x2="152.45" y2="32.59" style="fill:none;stroke:#9c9b9b;stroke-miterlimit:10;stroke-width:0.25px;stroke-dasharray:0.994944155216217,0.994944155216217"/><line x1="152.95" y1="32.59" x2="153.45" y2="32.59" style="fill:none;stroke:#9c9b9b;stroke-miterlimit:10;stroke-width:0.25px"/><g style="clip-path:url(#ak)"><path d="M17.22,117.36l27.48-8.74,27.48-9.23,27.48-9.22,27.48-6.07h27.48v43H17.22Z" transform="translate(-1.12 -5.5)" style="fill:#01a3db"/></g><g style="clip-path:url(#ak)"><path d="M17.22,116.17l27.48-9.8L72.18,96l27.48-9.67,27.48-6.08h27.48V84.1H127.14L99.66,90.17,72.18,99.39,44.7,108.62l-27.48,8.74Z" transform="translate(-1.12 -5.5)" style="fill:#d34d94"/></g><g style="clip-path:url(#ak)"><path d="M17.22,116.17,44.7,103.08,72.18,89.45l27.48-12,27.48-7.72,27.48-1.36V80.27H127.14L99.66,86.35,72.18,96,44.7,106.37Z" transform="translate(-1.12 -5.5)" style="fill:#4975b4"/></g><g style="clip-path:url(#ak)"><path d="M17.22,116.17,44.7,102.46,72.18,88.21,99.66,75.57l27.48-8.33,27.48-1.37v2.48l-27.48,1.36L99.66,77.43l-27.48,12L44.7,103.08Z" transform="translate(-1.12 -5.5)" style="fill:#fbbe0a"/></g><g style="clip-path:url(#ak)"><path d="M17.22,113.8,44.7,99.09l27.48-14.7L99.66,71.75l27.48-8.33,27.48-1.37v3.82l-27.48,1.37L99.66,75.57,72.18,88.21,44.7,102.46,17.22,116.17Z" transform="translate(-1.12 -5.5)" style="fill:#f2e500"/></g><g style="clip-path:url(#ak)"><path d="M17.22,113.09,44.7,97.29,72.18,81.46,99.66,67.7l27.48-9.46,27.48-2.49v6.3l-27.48,1.37L99.66,71.75,72.18,84.39,44.7,99.09,17.22,113.8Z" transform="translate(-1.12 -5.5)" style="fill:#71ad47"/></g><g style="clip-path:url(#ak)"><path d="M17.22,113.09,44.7,97.29,72.18,81.46,99.66,67.7l27.48-11.48,27.48-4.52v4l-27.48,2.49L99.66,67.7,72.18,81.46,44.7,97.29Z" transform="translate(-1.12 -5.5)" style="fill:#e37c3a"/></g><g style="clip-path:url(#ak)"><path d="M17.22,112.86,44.7,95.94l27.48-19.2L99.66,58.48l27.48-16.77,27.48-9.81V51.7l-27.48,4.52L99.66,67.7,72.18,81.46,44.7,97.29l-27.48,15.8Z" transform="translate(-1.12 -5.5)" style="fill:#f1ba3f"/></g><g style="clip-path:url(#ak)"><path d="M17.22,112.86,44.7,94.3,72.18,74.09,99.66,54.87l27.48-17.66,27.48-10.32v5l-27.48,9.81L99.66,58.48,72.18,76.74,44.7,95.94Z" transform="translate(-1.12 -5.5)" style="fill:#b3b2b3"/></g><g style="clip-path:url(#ak)"><path d="M18,117.36c0,.62-.34,1.12-.76,1.12s-.77-.5-.77-1.12.34-1.13.77-1.13S18,116.73,18,117.36Z" transform="translate(-1.12 -5.5)" style="fill-opacity:0"/></g><g style="clip-path:url(#ak)"><path d="M45.46,108.62c0,.62-.34,1.12-.76,1.12s-.77-.5-.77-1.12.34-1.13.77-1.13S45.46,108,45.46,108.62Z" transform="translate(-1.12 -5.5)" style="fill-opacity:0"/></g><g style="clip-path:url(#ak)"><path d="M72.94,99.39c0,.63-.34,1.13-.76,1.13s-.77-.5-.77-1.13.34-1.12.77-1.12S72.94,98.77,72.94,99.39Z" transform="translate(-1.12 -5.5)" style="fill-opacity:0"/></g><g style="clip-path:url(#ak)"><path d="M100.42,90.17c0,.62-.34,1.13-.76,1.13s-.77-.51-.77-1.13.34-1.13.77-1.13S100.42,89.55,100.42,90.17Z" transform="translate(-1.12 -5.5)" style="fill-opacity:0"/></g><g style="clip-path:url(#ak)"><path d="M127.9,84.1c0,.62-.34,1.12-.76,1.12s-.77-.5-.77-1.12.34-1.13.77-1.13S127.9,83.47,127.9,84.1Z" transform="translate(-1.12 -5.5)" style="fill-opacity:0"/></g><g style="clip-path:url(#ak)"><path d="M155.38,84.1c0,.62-.34,1.12-.76,1.12s-.77-.5-.77-1.12.34-1.13.77-1.13S155.38,83.47,155.38,84.1Z" transform="translate(-1.12 -5.5)" style="fill-opacity:0"/></g><g style="clip-path:url(#ak)"><path d="M18,116.17c0,.62-.34,1.13-.76,1.13s-.77-.51-.77-1.13.34-1.12.77-1.12S18,115.55,18,116.17Z" transform="translate(-1.12 -5.5)" style="fill-opacity:0"/></g><g style="clip-path:url(#ak)"><path d="M45.46,106.37c0,.62-.34,1.12-.76,1.12s-.77-.5-.77-1.12.34-1.13.77-1.13S45.46,105.75,45.46,106.37Z" transform="translate(-1.12 -5.5)" style="fill-opacity:0"/></g><g style="clip-path:url(#ak)"><path d="M72.94,96c0,.62-.34,1.13-.76,1.13s-.77-.51-.77-1.13.34-1.13.77-1.13S72.94,95.4,72.94,96Z" transform="translate(-1.12 -5.5)" style="fill-opacity:0"/></g><g style="clip-path:url(#ak)"><path d="M100.42,86.35c0,.62-.34,1.12-.76,1.12s-.77-.5-.77-1.12.34-1.13.77-1.13S100.42,85.72,100.42,86.35Z" transform="translate(-1.12 -5.5)" style="fill-opacity:0"/></g><g style="clip-path:url(#ak)"><path d="M127.9,80.27c0,.62-.34,1.13-.76,1.13s-.77-.51-.77-1.13.34-1.12.77-1.12S127.9,79.65,127.9,80.27Z" transform="translate(-1.12 -5.5)" style="fill-opacity:0"/></g><g style="clip-path:url(#ak)"><path d="M155.38,80.27c0,.62-.34,1.13-.76,1.13s-.77-.51-.77-1.13.34-1.12.77-1.12S155.38,79.65,155.38,80.27Z" transform="translate(-1.12 -5.5)" style="fill-opacity:0"/></g><g style="clip-path:url(#ak)"><path d="M18,116.17c0,.62-.34,1.13-.76,1.13s-.77-.51-.77-1.13.34-1.12.77-1.12S18,115.55,18,116.17Z" transform="translate(-1.12 -5.5)" style="fill-opacity:0"/></g><g style="clip-path:url(#ak)"><path d="M45.46,103.08c0,.63-.34,1.13-.76,1.13s-.77-.5-.77-1.13.34-1.12.77-1.12S45.46,102.46,45.46,103.08Z" transform="translate(-1.12 -5.5)" style="fill-opacity:0"/></g><g style="clip-path:url(#ak)"><path d="M72.94,89.45c0,.62-.34,1.13-.76,1.13s-.77-.51-.77-1.13.34-1.13.77-1.13S72.94,88.83,72.94,89.45Z" transform="translate(-1.12 -5.5)" style="fill-opacity:0"/></g><g style="clip-path:url(#ak)"><path d="M100.42,77.43c0,.62-.34,1.13-.76,1.13s-.77-.51-.77-1.13.34-1.12.77-1.12S100.42,76.81,100.42,77.43Z" transform="translate(-1.12 -5.5)" style="fill-opacity:0"/></g><g style="clip-path:url(#ak)"><path d="M127.9,69.71c0,.63-.34,1.13-.76,1.13s-.77-.5-.77-1.13.34-1.12.77-1.12S127.9,69.09,127.9,69.71Z" transform="translate(-1.12 -5.5)" style="fill-opacity:0"/></g><g style="clip-path:url(#ak)"><path d="M155.38,68.35c0,.62-.34,1.12-.76,1.12s-.77-.5-.77-1.12.34-1.13.77-1.13S155.38,67.72,155.38,68.35Z" transform="translate(-1.12 -5.5)" style="fill-opacity:0"/></g><g style="clip-path:url(#ak)"><path d="M18,116.17c0,.62-.34,1.13-.76,1.13s-.77-.51-.77-1.13.34-1.12.77-1.12S18,115.55,18,116.17Z" transform="translate(-1.12 -5.5)" style="fill-opacity:0"/></g><g style="clip-path:url(#ak)"><path d="M45.46,102.46c0,.63-.34,1.13-.76,1.13s-.77-.5-.77-1.13.34-1.12.77-1.12S45.46,101.84,45.46,102.46Z" transform="translate(-1.12 -5.5)" style="fill-opacity:0"/></g><g style="clip-path:url(#ak)"><path d="M72.94,88.21c0,.62-.34,1.13-.76,1.13s-.77-.51-.77-1.13.34-1.12.77-1.12S72.94,87.59,72.94,88.21Z" transform="translate(-1.12 -5.5)" style="fill-opacity:0"/></g><g style="clip-path:url(#ak)"><path d="M100.42,75.57c0,.63-.34,1.13-.76,1.13s-.77-.5-.77-1.13.34-1.12.77-1.12S100.42,75,100.42,75.57Z" transform="translate(-1.12 -5.5)" style="fill-opacity:0"/></g><g style="clip-path:url(#ak)"><path d="M127.9,67.24c0,.62-.34,1.13-.76,1.13s-.77-.51-.77-1.13.34-1.13.77-1.13S127.9,66.62,127.9,67.24Z" transform="translate(-1.12 -5.5)" style="fill-opacity:0"/></g><g style="clip-path:url(#ak)"><path d="M155.38,65.87c0,.62-.34,1.13-.76,1.13s-.77-.51-.77-1.13.34-1.12.77-1.12S155.38,65.25,155.38,65.87Z" transform="translate(-1.12 -5.5)" style="fill-opacity:0"/></g><g style="clip-path:url(#ak)"><path d="M18,113.8c0,.63-.34,1.13-.76,1.13s-.77-.5-.77-1.13.34-1.12.77-1.12S18,113.18,18,113.8Z" transform="translate(-1.12 -5.5)" style="fill-opacity:0"/></g><g style="clip-path:url(#ak)"><path d="M45.46,99.09c0,.62-.34,1.13-.76,1.13s-.77-.51-.77-1.13S44.27,98,44.7,98,45.46,98.47,45.46,99.09Z" transform="translate(-1.12 -5.5)" style="fill-opacity:0"/></g><g style="clip-path:url(#ak)"><path d="M72.94,84.39c0,.62-.34,1.12-.76,1.12s-.77-.5-.77-1.12.34-1.13.77-1.13S72.94,83.77,72.94,84.39Z" transform="translate(-1.12 -5.5)" style="fill-opacity:0"/></g><g style="clip-path:url(#ak)"><path d="M100.42,71.75c0,.62-.34,1.13-.76,1.13s-.77-.51-.77-1.13.34-1.13.77-1.13S100.42,71.13,100.42,71.75Z" transform="translate(-1.12 -5.5)" style="fill-opacity:0"/></g><g style="clip-path:url(#ak)"><path d="M127.9,63.42c0,.62-.34,1.12-.76,1.12s-.77-.5-.77-1.12.34-1.13.77-1.13S127.9,62.79,127.9,63.42Z" transform="translate(-1.12 -5.5)" style="fill-opacity:0"/></g><g style="clip-path:url(#ak)"><path d="M155.38,62.05c0,.62-.34,1.12-.76,1.12s-.77-.5-.77-1.12.34-1.13.77-1.13S155.38,61.43,155.38,62.05Z" transform="translate(-1.12 -5.5)" style="fill-opacity:0"/></g><g style="clip-path:url(#ak)"><path d="M18,113.09c0,.62-.34,1.13-.76,1.13s-.77-.51-.77-1.13.34-1.12.77-1.12S18,112.47,18,113.09Z" transform="translate(-1.12 -5.5)" style="fill-opacity:0"/></g><g style="clip-path:url(#ak)"><path d="M45.46,97.29c0,.62-.34,1.13-.76,1.13s-.77-.51-.77-1.13.34-1.13.77-1.13S45.46,96.67,45.46,97.29Z" transform="translate(-1.12 -5.5)" style="fill-opacity:0"/></g><g style="clip-path:url(#ak)"><path d="M72.94,81.46c0,.63-.34,1.13-.76,1.13s-.77-.5-.77-1.13.34-1.12.77-1.12S72.94,80.84,72.94,81.46Z" transform="translate(-1.12 -5.5)" style="fill-opacity:0"/></g><g style="clip-path:url(#ak)"><path d="M100.42,67.7c0,.62-.34,1.13-.76,1.13s-.77-.51-.77-1.13.34-1.12.77-1.12S100.42,67.08,100.42,67.7Z" transform="translate(-1.12 -5.5)" style="fill-opacity:0"/></g><g style="clip-path:url(#ak)"><path d="M127.9,58.24c0,.62-.34,1.13-.76,1.13s-.77-.51-.77-1.13.34-1.12.77-1.12S127.9,57.62,127.9,58.24Z" transform="translate(-1.12 -5.5)" style="fill-opacity:0"/></g><g style="clip-path:url(#ak)"><path d="M155.38,55.75c0,.62-.34,1.12-.76,1.12s-.77-.5-.77-1.12.34-1.13.77-1.13S155.38,55.13,155.38,55.75Z" transform="translate(-1.12 -5.5)" style="fill-opacity:0"/></g><g style="clip-path:url(#ak)"><path d="M18,113.09c0,.62-.34,1.13-.76,1.13s-.77-.51-.77-1.13.34-1.12.77-1.12S18,112.47,18,113.09Z" transform="translate(-1.12 -5.5)" style="fill-opacity:0"/></g><g style="clip-path:url(#ak)"><path d="M45.46,97.29c0,.62-.34,1.13-.76,1.13s-.77-.51-.77-1.13.34-1.13.77-1.13S45.46,96.67,45.46,97.29Z" transform="translate(-1.12 -5.5)" style="fill-opacity:0"/></g><g style="clip-path:url(#ak)"><path d="M72.94,81.46c0,.63-.34,1.13-.76,1.13s-.77-.5-.77-1.13.34-1.12.77-1.12S72.94,80.84,72.94,81.46Z" transform="translate(-1.12 -5.5)" style="fill-opacity:0"/></g><g style="clip-path:url(#ak)"><path d="M100.42,67.7c0,.62-.34,1.13-.76,1.13s-.77-.51-.77-1.13.34-1.12.77-1.12S100.42,67.08,100.42,67.7Z" transform="translate(-1.12 -5.5)" style="fill-opacity:0"/></g><g style="clip-path:url(#ak)"><path d="M127.9,56.22c0,.62-.34,1.12-.76,1.12s-.77-.5-.77-1.12.34-1.13.77-1.13S127.9,55.59,127.9,56.22Z" transform="translate(-1.12 -5.5)" style="fill-opacity:0"/></g><g style="clip-path:url(#ak)"><path d="M155.38,51.7c0,.62-.34,1.12-.76,1.12s-.77-.5-.77-1.12.34-1.13.77-1.13S155.38,51.08,155.38,51.7Z" transform="translate(-1.12 -5.5)" style="fill-opacity:0"/></g><g style="clip-path:url(#ak)"><path d="M18,112.86c0,.62-.34,1.12-.76,1.12s-.77-.5-.77-1.12.34-1.13.77-1.13S18,112.23,18,112.86Z" transform="translate(-1.12 -5.5)" style="fill-opacity:0"/></g><g style="clip-path:url(#ak)"><path d="M45.46,95.94c0,.62-.34,1.13-.76,1.13s-.77-.51-.77-1.13.34-1.12.77-1.12S45.46,95.32,45.46,95.94Z" transform="translate(-1.12 -5.5)" style="fill-opacity:0"/></g><g style="clip-path:url(#ak)"><path d="M72.94,76.74c0,.62-.34,1.13-.76,1.13s-.77-.51-.77-1.13.34-1.13.77-1.13S72.94,76.12,72.94,76.74Z" transform="translate(-1.12 -5.5)" style="fill-opacity:0"/></g><g style="clip-path:url(#ak)"><path d="M100.42,58.48c0,.62-.34,1.12-.76,1.12s-.77-.5-.77-1.12.34-1.13.77-1.13S100.42,57.86,100.42,58.48Z" transform="translate(-1.12 -5.5)" style="fill-opacity:0"/></g><g style="clip-path:url(#ak)"><path d="M127.9,41.71c0,.62-.34,1.12-.76,1.12s-.77-.5-.77-1.12.34-1.13.77-1.13S127.9,41.08,127.9,41.71Z" transform="translate(-1.12 -5.5)" style="fill-opacity:0"/></g><g style="clip-path:url(#ak)"><path d="M155.38,31.9c0,.62-.34,1.13-.76,1.13s-.77-.51-.77-1.13.34-1.12.77-1.12S155.38,31.28,155.38,31.9Z" transform="translate(-1.12 -5.5)" style="fill-opacity:0"/></g><g style="clip-path:url(#ak)"><path d="M18,112.86c0,.62-.34,1.12-.76,1.12s-.77-.5-.77-1.12.34-1.13.77-1.13S18,112.23,18,112.86Z" transform="translate(-1.12 -5.5)" style="fill-opacity:0"/></g><g style="clip-path:url(#ak)"><path d="M45.46,94.3c0,.62-.34,1.13-.76,1.13s-.77-.51-.77-1.13.34-1.12.77-1.12S45.46,93.68,45.46,94.3Z" transform="translate(-1.12 -5.5)" style="fill-opacity:0"/></g><g style="clip-path:url(#ak)"><path d="M72.94,74.09c0,.62-.34,1.13-.76,1.13s-.77-.51-.77-1.13.34-1.12.77-1.12S72.94,73.47,72.94,74.09Z" transform="translate(-1.12 -5.5)" style="fill-opacity:0"/></g><g style="clip-path:url(#ak)"><path d="M100.42,54.87c0,.62-.34,1.12-.76,1.12s-.77-.5-.77-1.12.34-1.13.77-1.13S100.42,54.25,100.42,54.87Z" transform="translate(-1.12 -5.5)" style="fill-opacity:0"/></g><g style="clip-path:url(#ak)"><path d="M127.9,37.21c0,.63-.34,1.13-.76,1.13s-.77-.5-.77-1.13.34-1.12.77-1.12S127.9,36.59,127.9,37.21Z" transform="translate(-1.12 -5.5)" style="fill-opacity:0"/></g><path d="M187.25,8.9V127.09" transform="translate(-1.12 -5.5)" style="fill:none;stroke:#9c9b9b;stroke-miterlimit:10;stroke-width:0.25px"/><path d="M206.36,8.9V127.09" transform="translate(-1.12 -5.5)" style="fill:none;stroke:#9c9b9b;stroke-miterlimit:10;stroke-width:0.25px"/><path d="M225.47,8.9V127.09" transform="translate(-1.12 -5.5)" style="fill:none;stroke:#9c9b9b;stroke-miterlimit:10;stroke-width:0.25px"/><path d="M44.82,8.82V127" transform="translate(-1.12 -5.5)" style="fill:none;stroke:#9c9b9b;stroke-miterlimit:10;stroke-width:0.25px"/><path d="M72.13,8.82V127" transform="translate(-1.12 -5.5)" style="fill:none;stroke:#9c9b9b;stroke-miterlimit:10;stroke-width:0.25px"/><path d="M99.69,8.82V127" transform="translate(-1.12 -5.5)" style="fill:none;stroke:#9c9b9b;stroke-miterlimit:10;stroke-width:0.25px"/><path d="M127.25,8.82V127" transform="translate(-1.12 -5.5)" style="fill:none;stroke:#9c9b9b;stroke-miterlimit:10;stroke-width:0.25px"/><g style="clip-path:url(#cu)"><ellipse cx="153.5" cy="21.4" rx="0.77" ry="1.13" style="opacity:0"/><path d="M155.38,26.89c0,.62-.34,1.13-.76,1.13s-.77-.51-.77-1.13.34-1.12.77-1.12S155.38,26.27,155.38,26.89Z" transform="translate(-1.12 -5.5)" style="fill:none;stroke:#9c9b9b;stroke-miterlimit:10;stroke-width:0.25px;stroke-dasharray:0.9950157999992371,0.9950157999992371"/></g><rect x="16.1" y="3.16" width="137.4" height="118.4" style="fill:none;stroke:#9c9b9b;stroke-miterlimit:10;stroke-width:0.25px;stroke-dasharray:1"/><path d="M262,17.6a.29.29,0,0,1,.29-.29h2.91a.29.29,0,0,1,.29.29v2.92a.29.29,0,0,1-.29.29h-2.91a.29.29,0,0,1-.29-.29Z" transform="translate(-1.12 -5.5)" style="fill:#b3b2b3"/><path d="M262,28.51a.29.29,0,0,1,.29-.29h2.91a.29.29,0,0,1,.29.29v2.91a.29.29,0,0,1-.29.29h-2.91a.29.29,0,0,1-.29-.29Z" transform="translate(-1.12 -5.5)" style="fill:#f1ba3f"/><path d="M262,39.41a.29.29,0,0,1,.29-.29h2.91a.29.29,0,0,1,.29.29v2.91a.29.29,0,0,1-.29.3h-2.91a.29.29,0,0,1-.29-.3Z" transform="translate(-1.12 -5.5)" style="fill:#e37c3a"/><path d="M262,50.32a.29.29,0,0,1,.29-.29h2.91a.29.29,0,0,1,.29.29v2.91a.29.29,0,0,1-.29.29h-2.91a.29.29,0,0,1-.29-.29Z" transform="translate(-1.12 -5.5)" style="fill:#71ad47"/><path d="M262,61.22a.29.29,0,0,1,.29-.29h2.91a.29.29,0,0,1,.29.29v2.91a.29.29,0,0,1-.29.29h-2.91a.29.29,0,0,1-.29-.29Z" transform="translate(-1.12 -5.5)" style="fill:#f2e500"/><path d="M262,72.13a.3.3,0,0,1,.29-.3h2.91a.3.3,0,0,1,.29.3V75a.29.29,0,0,1-.29.29h-2.91A.29.29,0,0,1,262,75Z" transform="translate(-1.12 -5.5)" style="fill:#fbbe0a"/><path d="M262,83a.29.29,0,0,1,.29-.29h2.91a.29.29,0,0,1,.29.29v2.91a.29.29,0,0,1-.29.29h-2.91a.29.29,0,0,1-.29-.29Z" transform="translate(-1.12 -5.5)" style="fill:#4975b4"/><path d="M262,93.93a.29.29,0,0,1,.29-.29h2.91a.29.29,0,0,1,.29.29v2.92a.29.29,0,0,1-.29.29h-2.91a.29.29,0,0,1-.29-.29Z" transform="translate(-1.12 -5.5)" style="fill:#d34d94"/><path d="M262,104.84a.29.29,0,0,1,.29-.29h2.91a.29.29,0,0,1,.29.29v2.91a.29.29,0,0,1-.29.29h-2.91a.29.29,0,0,1-.29-.29Z" transform="translate(-1.12 -5.5)" style="fill:#01a3db"/><path d="M270.1,20.23a2.48,2.48,0,0,1-.61-1.81V15.21h.59v3.18a2.12,2.12,0,0,0,.44,1.46,1.93,1.93,0,0,0,2.55,0,2.07,2.07,0,0,0,.44-1.46V15.21h.58v3.21a2.52,2.52,0,0,1-.6,1.81,2.25,2.25,0,0,1-1.7.62A2.23,2.23,0,0,1,270.1,20.23Z" transform="translate(-1.12 -5.5)" style="fill:#3c3c3b"/><path d="M276.81,20.49a2.71,2.71,0,0,1-1.05-1,3,3,0,0,1,0-2.92,2.58,2.58,0,0,1,1.05-1,3,3,0,0,1,1.5-.37,3.15,3.15,0,0,1,1.16.21,2.41,2.41,0,0,1,.89.6l-.37.38a2.25,2.25,0,0,0-1.66-.66,2.47,2.47,0,0,0-1.21.3,2.26,2.26,0,0,0-.85.83A2.3,2.3,0,0,0,276,18a2.26,2.26,0,0,0,1.16,2,2.37,2.37,0,0,0,1.21.31,2.25,2.25,0,0,0,1.66-.67l.37.37a2.28,2.28,0,0,1-.9.61,3.28,3.28,0,0,1-2.65-.15Z" transform="translate(-1.12 -5.5)" style="fill:#3c3c3b"/><path d="M282.45,20.48a2.61,2.61,0,0,1-1.06-1A2.83,2.83,0,0,1,281,18a2.86,2.86,0,0,1,.38-1.46,2.67,2.67,0,0,1,1.06-1,3,3,0,0,1,1.5-.37,3,3,0,0,1,1.5.37,2.67,2.67,0,0,1,1.06,1,3,3,0,0,1,0,2.92,2.81,2.81,0,0,1-1.06,1,3.08,3.08,0,0,1-1.5.36A3,3,0,0,1,282.45,20.48Zm2.7-.45a2.16,2.16,0,0,0,.84-.83A2.32,2.32,0,0,0,286.3,18a2.27,2.27,0,0,0-.31-1.19,2.1,2.1,0,0,0-.84-.83,2.38,2.38,0,0,0-1.2-.3,2.43,2.43,0,0,0-1.2.3,2.19,2.19,0,0,0-.85.83,2.37,2.37,0,0,0-.31,1.19,2.43,2.43,0,0,0,.31,1.19,2.26,2.26,0,0,0,.85.83,2.43,2.43,0,0,0,1.2.3A2.38,2.38,0,0,0,285.15,20Z" transform="translate(-1.12 -5.5)" style="fill:#3c3c3b"/><path d="M294.69,18.39a1.39,1.39,0,0,1,.3.92,1.28,1.28,0,0,1-.53,1.11,2.63,2.63,0,0,1-1.57.39h-2.58v-5.6h2.42a2.43,2.43,0,0,1,1.45.37,1.24,1.24,0,0,1,.52,1.07,1.31,1.31,0,0,1-.23.78,1.35,1.35,0,0,1-.63.49A1.51,1.51,0,0,1,294.69,18.39Zm-3.78-2.69v2h1.78a1.85,1.85,0,0,0,1.05-.26.9.9,0,0,0,.37-.76.87.87,0,0,0-.37-.75,1.77,1.77,0,0,0-1.05-.26ZM294,20.06a.89.89,0,0,0,.38-.8c0-.7-.51-1-1.52-1h-2v2.1h2A2.09,2.09,0,0,0,294,20.06Z" transform="translate(-1.12 -5.5)" style="fill:#3c3c3b"/><path d="M300,16.6v4.21h-.55V20a1.6,1.6,0,0,1-.61.6,1.87,1.87,0,0,1-.9.21,1.82,1.82,0,0,1-1.3-.46,1.79,1.79,0,0,1-.47-1.35V16.6h.56V19a1.4,1.4,0,0,0,.33,1,1.24,1.24,0,0,0,.94.35,1.39,1.39,0,0,0,1.05-.41,1.58,1.58,0,0,0,.38-1.12V16.6Z" transform="translate(-1.12 -5.5)" style="fill:#3c3c3b"/><path d="M302.75,16.78a2.06,2.06,0,0,1,1-.21v.55h-.14a1.36,1.36,0,0,0-1,.41,1.61,1.61,0,0,0-.37,1.14v2.15h-.57V16.6h.54v.82A1.49,1.49,0,0,1,302.75,16.78Z" transform="translate(-1.12 -5.5)" style="fill:#3c3c3b"/><path d="M308.16,17a1.79,1.79,0,0,1,.47,1.34v2.44h-.57V18.42a1.4,1.4,0,0,0-.33-1,1.23,1.23,0,0,0-.94-.34,1.42,1.42,0,0,0-1.07.4,1.51,1.51,0,0,0-.4,1.12v2.21h-.57V16.6h.55v.78a1.54,1.54,0,0,1,.64-.6,2.12,2.12,0,0,1,1-.21A1.7,1.7,0,0,1,308.16,17Z" transform="translate(-1.12 -5.5)" style="fill:#3c3c3b"/><path d="M269.54,26.21h2.28a3.46,3.46,0,0,1,1.57.35,2.64,2.64,0,0,1,1.05,1,2.84,2.84,0,0,1,.38,1.46,2.8,2.8,0,0,1-.38,1.45,2.64,2.64,0,0,1-1.05,1,3.33,3.33,0,0,1-1.57.36h-2.28Zm2.25,5.09a2.6,2.6,0,0,0,1.28-.3,2.08,2.08,0,0,0,.86-.8,2.34,2.34,0,0,0,.3-1.19,2.31,2.31,0,0,0-.3-1.19,2.1,2.1,0,0,0-.86-.81,2.72,2.72,0,0,0-1.28-.29h-1.66V31.3Z" transform="translate(-1.12 -5.5)" style="fill:#3c3c3b"/><path d="M279.69,29.88h-3.52a1.5,1.5,0,0,0,.5,1.06,1.69,1.69,0,0,0,1.16.4,1.64,1.64,0,0,0,.71-.14,1.54,1.54,0,0,0,.57-.41l.32.37a1.82,1.82,0,0,1-.7.51,2.47,2.47,0,0,1-2.07-.1,2,2,0,0,1-.78-.76,2.18,2.18,0,0,1-.28-1.11,2.21,2.21,0,0,1,.27-1.1,1.87,1.87,0,0,1,.74-.76,2.05,2.05,0,0,1,1.05-.27,2,2,0,0,1,1,.27,1.85,1.85,0,0,1,.73.76,2.21,2.21,0,0,1,.27,1.1Zm-3.05-1.44a1.53,1.53,0,0,0-.47,1h3a1.52,1.52,0,0,0-.46-1,1.45,1.45,0,0,0-1-.39A1.41,1.41,0,0,0,276.64,28.44Z" transform="translate(-1.12 -5.5)" style="fill:#3c3c3b"/><path d="M280.86,25.87h.57v5.94h-.57Z" transform="translate(-1.12 -5.5)" style="fill:#3c3c3b"/><path d="M283,26.56a.4.4,0,0,1-.12-.29A.38.38,0,0,1,283,26a.41.41,0,0,1,.3-.12.4.4,0,0,1,.29.12.36.36,0,0,1,.12.27.41.41,0,0,1-.12.3.4.4,0,0,1-.29.12A.41.41,0,0,1,283,26.56Zm0,1h.57v4.21H283Z" transform="translate(-1.12 -5.5)" style="fill:#3c3c3b"/><path d="M288.7,27.6l-1.87,4.21h-.59l-1.86-4.21H285l1.58,3.58,1.59-3.58Z" transform="translate(-1.12 -5.5)" style="fill:#3c3c3b"/><path d="M293,29.88h-3.52a1.48,1.48,0,0,0,.51,1.06,1.65,1.65,0,0,0,1.15.4,1.71,1.71,0,0,0,.72-.14,1.54,1.54,0,0,0,.57-.41l.32.37a1.89,1.89,0,0,1-.7.51,2.34,2.34,0,0,1-.93.18,2.3,2.3,0,0,1-1.15-.28,2,2,0,0,1-.78-.76A2.29,2.29,0,0,1,289,29.7a2.21,2.21,0,0,1,.27-1.1,1.93,1.93,0,0,1,.74-.76,2.18,2.18,0,0,1,2.1,0,1.91,1.91,0,0,1,.73.76,2.32,2.32,0,0,1,.26,1.1ZM290,28.44a1.53,1.53,0,0,0-.47,1h3a1.57,1.57,0,0,0-.47-1,1.45,1.45,0,0,0-1-.39A1.41,1.41,0,0,0,290,28.44Z" transform="translate(-1.12 -5.5)" style="fill:#3c3c3b"/><path d="M295.35,27.78a2.06,2.06,0,0,1,1-.21v.55h-.14a1.36,1.36,0,0,0-1,.41,1.61,1.61,0,0,0-.37,1.14v2.15h-.57V27.6h.54v.82A1.49,1.49,0,0,1,295.35,27.78Z" transform="translate(-1.12 -5.5)" style="fill:#3c3c3b"/><path d="M300.08,28a1.6,1.6,0,0,1,.44,1.22v2.61H300v-.66a1.29,1.29,0,0,1-.57.51,1.84,1.84,0,0,1-.88.19,1.7,1.7,0,0,1-1.12-.34,1.15,1.15,0,0,1,0-1.75,1.9,1.9,0,0,1,1.24-.33H300v-.25a1.08,1.08,0,0,0-.3-.83,1.25,1.25,0,0,0-.89-.29,2.23,2.23,0,0,0-.77.14,1.79,1.79,0,0,0-.63.36l-.25-.42a2,2,0,0,1,.76-.42,3,3,0,0,1,.95-.15A1.74,1.74,0,0,1,300.08,28Zm-.64,3.2a1.31,1.31,0,0,0,.51-.64v-.69h-1.32c-.72,0-1.08.26-1.08.76a.71.71,0,0,0,.28.58,1.3,1.3,0,0,0,.79.21A1.46,1.46,0,0,0,299.44,31.18Z" transform="translate(-1.12 -5.5)" style="fill:#3c3c3b"/><path d="M305.31,27.84a1.93,1.93,0,0,1,.75.75,2.28,2.28,0,0,1,.27,1.11,2.23,2.23,0,0,1-.27,1.11,2.05,2.05,0,0,1-.75.77,2.16,2.16,0,0,1-1.08.27,2,2,0,0,1-.94-.23,1.7,1.7,0,0,1-.68-.65v.84h-.54V25.87h.56V28.4a1.83,1.83,0,0,1,.68-.62,2,2,0,0,1,.92-.21A2.16,2.16,0,0,1,305.31,27.84Zm-.32,3.3a1.51,1.51,0,0,0,.57-.58,1.85,1.85,0,0,0,.2-.86,1.81,1.81,0,0,0-.2-.85,1.45,1.45,0,0,0-.57-.58,1.63,1.63,0,0,0-1.6,0,1.42,1.42,0,0,0-.56.58,1.7,1.7,0,0,0-.21.85,1.74,1.74,0,0,0,.21.86,1.49,1.49,0,0,0,.56.58,1.7,1.7,0,0,0,1.6,0Z" transform="translate(-1.12 -5.5)" style="fill:#3c3c3b"/><path d="M307.49,25.87h.57v5.94h-.57Z" transform="translate(-1.12 -5.5)" style="fill:#3c3c3b"/><path d="M313.31,29.88h-3.52a1.5,1.5,0,0,0,.5,1.06,1.66,1.66,0,0,0,1.15.4,1.71,1.71,0,0,0,.72-.14,1.54,1.54,0,0,0,.57-.41l.32.37a1.89,1.89,0,0,1-.7.51,2.32,2.32,0,0,1-.92.18,2.25,2.25,0,0,1-1.15-.28,1.9,1.9,0,0,1-.78-.76,2.18,2.18,0,0,1-.28-1.11,2.21,2.21,0,0,1,.27-1.1,1.85,1.85,0,0,1,.73-.76,2.18,2.18,0,0,1,2.1,0,1.91,1.91,0,0,1,.73.76,2.21,2.21,0,0,1,.26,1.1Zm-3.06-1.44a1.52,1.52,0,0,0-.46,1h3a1.53,1.53,0,0,0-.47-1,1.54,1.54,0,0,0-2.05,0Z" transform="translate(-1.12 -5.5)" style="fill:#3c3c3b"/><path d="M314.62,31.7a2.16,2.16,0,0,1-.73-.37l.26-.45a2,2,0,0,0,.66.34,2.57,2.57,0,0,0,.83.13,1.56,1.56,0,0,0,.85-.18.57.57,0,0,0,.28-.51.46.46,0,0,0-.15-.36.9.9,0,0,0-.39-.2,4.18,4.18,0,0,0-.61-.13,7.89,7.89,0,0,1-.83-.2,1.31,1.31,0,0,1-.53-.34,1,1,0,0,1-.22-.66,1.07,1.07,0,0,1,.44-.87,2,2,0,0,1,1.23-.33,2.82,2.82,0,0,1,.81.11,2.08,2.08,0,0,1,.67.28l-.24.46a2.14,2.14,0,0,0-1.24-.37,1.39,1.39,0,0,0-.82.2.57.57,0,0,0-.28.5.5.5,0,0,0,.16.39,1.07,1.07,0,0,0,.38.21l.64.14a7.11,7.11,0,0,1,.81.19,1.11,1.11,0,0,1,.52.33.87.87,0,0,1,.22.64,1,1,0,0,1-.46.87,2.16,2.16,0,0,1-1.28.33A3.19,3.19,0,0,1,314.62,31.7Z" transform="translate(-1.12 -5.5)" style="fill:#3c3c3b"/><path d="M273.5,42.3v.51h-4v-5.6h3.84v.51h-3.25v2H273v.51h-2.9V42.3Z" transform="translate(-1.12 -5.5)" style="fill:#3c3c3b"/><path d="M278.17,39a1.75,1.75,0,0,1,.47,1.34v2.44h-.57V40.42a1.4,1.4,0,0,0-.33-1,1.21,1.21,0,0,0-.93-.34,1.46,1.46,0,0,0-1.08.4,1.54,1.54,0,0,0-.39,1.12v2.21h-.57V38.6h.54v.78a1.57,1.57,0,0,1,.65-.6,2,2,0,0,1,1-.21A1.7,1.7,0,0,1,278.17,39Z" transform="translate(-1.12 -5.5)" style="fill:#3c3c3b"/><path d="M283.59,39a1.79,1.79,0,0,1,.47,1.34v2.44h-.57V40.42a1.4,1.4,0,0,0-.33-1,1.22,1.22,0,0,0-.93-.34,1.43,1.43,0,0,0-1.08.4,1.55,1.55,0,0,0-.4,1.12v2.21h-.56V36.87h.56v2.47a1.53,1.53,0,0,1,.64-.57,2.06,2.06,0,0,1,.94-.2A1.7,1.7,0,0,1,283.59,39Z" transform="translate(-1.12 -5.5)" style="fill:#3c3c3b"/><path d="M288.34,39a1.6,1.6,0,0,1,.44,1.22v2.61h-.55v-.66a1.21,1.21,0,0,1-.56.51,1.87,1.87,0,0,1-.88.19,1.68,1.68,0,0,1-1.12-.34,1.15,1.15,0,0,1,0-1.75,1.88,1.88,0,0,1,1.23-.33h1.34v-.25a1.08,1.08,0,0,0-.3-.83,1.27,1.27,0,0,0-.89-.29,2.19,2.19,0,0,0-.77.14,1.63,1.63,0,0,0-.63.36l-.26-.42a2.06,2.06,0,0,1,.77-.42,2.94,2.94,0,0,1,.94-.15A1.78,1.78,0,0,1,288.34,39Zm-.64,3.2a1.31,1.31,0,0,0,.51-.64v-.69h-1.32c-.72,0-1.08.26-1.08.76a.68.68,0,0,0,.28.58,1.29,1.29,0,0,0,.78.21A1.49,1.49,0,0,0,287.7,42.18Z" transform="translate(-1.12 -5.5)" style="fill:#3c3c3b"/><path d="M293.73,39a1.79,1.79,0,0,1,.46,1.34v2.44h-.57V40.42a1.4,1.4,0,0,0-.32-1,1.23,1.23,0,0,0-.94-.34,1.42,1.42,0,0,0-1.07.4,1.51,1.51,0,0,0-.4,1.12v2.21h-.57V38.6h.55v.78a1.49,1.49,0,0,1,.64-.6,2,2,0,0,1,.95-.21A1.74,1.74,0,0,1,293.73,39Z" transform="translate(-1.12 -5.5)" style="fill:#3c3c3b"/><path d="M296.38,42.58a2,2,0,0,1-.77-.77,2.18,2.18,0,0,1-.28-1.11,2.12,2.12,0,0,1,.28-1.1,1.94,1.94,0,0,1,.77-.76,2.29,2.29,0,0,1,1.12-.27,2.19,2.19,0,0,1,1,.21,1.69,1.69,0,0,1,.68.62l-.43.29a1.26,1.26,0,0,0-.53-.47,1.64,1.64,0,0,0-1.51.05,1.45,1.45,0,0,0-.57.58,1.93,1.93,0,0,0,0,1.71,1.51,1.51,0,0,0,.57.58,1.69,1.69,0,0,0,.82.2,1.58,1.58,0,0,0,.69-.15,1.31,1.31,0,0,0,.53-.46l.43.28a1.72,1.72,0,0,1-.68.63,2.19,2.19,0,0,1-1,.21A2.29,2.29,0,0,1,296.38,42.58Z" transform="translate(-1.12 -5.5)" style="fill:#3c3c3b"/><path d="M303.85,40.88h-3.52a1.5,1.5,0,0,0,.5,1.06,1.69,1.69,0,0,0,1.16.4,1.64,1.64,0,0,0,.71-.14,1.54,1.54,0,0,0,.57-.41l.32.37a1.82,1.82,0,0,1-.7.51,2.47,2.47,0,0,1-2.07-.1,2,2,0,0,1-.78-.76,2.18,2.18,0,0,1-.28-1.11,2.21,2.21,0,0,1,.27-1.1,1.87,1.87,0,0,1,.74-.76,2.18,2.18,0,0,1,2.1,0,1.89,1.89,0,0,1,.72.76,2.21,2.21,0,0,1,.27,1.1Zm-3.05-1.44a1.53,1.53,0,0,0-.47,1h3a1.52,1.52,0,0,0-.46-1,1.45,1.45,0,0,0-1-.39A1.41,1.41,0,0,0,300.8,39.44Z" transform="translate(-1.12 -5.5)" style="fill:#3c3c3b"/><path d="M311.51,39a1.85,1.85,0,0,1,.45,1.35v2.44h-.57V40.42a1.44,1.44,0,0,0-.31-1,1.15,1.15,0,0,0-.89-.34,1.35,1.35,0,0,0-1,.4,1.58,1.58,0,0,0-.37,1.12v2.21h-.57V40.42a1.45,1.45,0,0,0-.32-1,1.15,1.15,0,0,0-.9-.34,1.32,1.32,0,0,0-1,.4,1.54,1.54,0,0,0-.38,1.12v2.21H305V38.6h.54v.77a1.52,1.52,0,0,1,.63-.6,2,2,0,0,1,.92-.2,1.78,1.78,0,0,1,.91.22,1.37,1.37,0,0,1,.58.67,1.7,1.7,0,0,1,.67-.66,2.14,2.14,0,0,1,1-.23A1.69,1.69,0,0,1,311.51,39Z" transform="translate(-1.12 -5.5)" style="fill:#3c3c3b"/><path d="M317.19,40.88h-3.53a1.55,1.55,0,0,0,.51,1.06,1.66,1.66,0,0,0,1.15.4,1.71,1.71,0,0,0,.72-.14,1.54,1.54,0,0,0,.57-.41l.32.37a1.89,1.89,0,0,1-.7.51,2.32,2.32,0,0,1-.92.18,2.25,2.25,0,0,1-1.15-.28,1.9,1.9,0,0,1-.78-.76,2.18,2.18,0,0,1-.28-1.11,2.21,2.21,0,0,1,.27-1.1,1.85,1.85,0,0,1,.73-.76,2.18,2.18,0,0,1,2.1,0,1.91,1.91,0,0,1,.73.76,2.21,2.21,0,0,1,.26,1.1Zm-3.06-1.44a1.57,1.57,0,0,0-.47,1h3a1.53,1.53,0,0,0-.47-1,1.54,1.54,0,0,0-2.05,0Z" transform="translate(-1.12 -5.5)" style="fill:#3c3c3b"/><path d="M321.76,39a1.79,1.79,0,0,1,.47,1.34v2.44h-.57V40.42a1.4,1.4,0,0,0-.33-1,1.23,1.23,0,0,0-.94-.34,1.42,1.42,0,0,0-1.07.4,1.51,1.51,0,0,0-.4,1.12v2.21h-.57V38.6h.55v.78a1.54,1.54,0,0,1,.64-.6,2.09,2.09,0,0,1,1-.21A1.7,1.7,0,0,1,321.76,39Z" transform="translate(-1.12 -5.5)" style="fill:#3c3c3b"/><path d="M326,42.55a1,1,0,0,1-.4.22,1.62,1.62,0,0,1-.49.08,1.12,1.12,0,0,1-1.23-1.23V39.08h-.76V38.6h.76v-.92h.56v.92h1.28v.48h-1.28v2.51a.81.81,0,0,0,.19.57.73.73,0,0,0,.54.2,1,1,0,0,0,.34-.06.83.83,0,0,0,.29-.16Z" transform="translate(-1.12 -5.5)" style="fill:#3c3c3b"/><path d="M270.63,48.72h-2v-.51h4.53v.51h-2v5.09h-.59Z" transform="translate(-1.12 -5.5)" style="fill:#3c3c3b"/><path d="M277.23,51.88h-3.52a1.51,1.51,0,0,0,.51,1.06,1.66,1.66,0,0,0,1.15.4,1.71,1.71,0,0,0,.72-.14,1.54,1.54,0,0,0,.57-.41l.32.37a1.89,1.89,0,0,1-.7.51,2.34,2.34,0,0,1-.93.18,2.24,2.24,0,0,1-1.14-.28,1.9,1.9,0,0,1-.78-.76,2.18,2.18,0,0,1-.28-1.11,2.32,2.32,0,0,1,.26-1.1,1.93,1.93,0,0,1,.74-.76,2.18,2.18,0,0,1,2.1,0,1.91,1.91,0,0,1,.73.76,2.32,2.32,0,0,1,.26,1.1Zm-3.05-1.44a1.57,1.57,0,0,0-.47,1h3a1.57,1.57,0,0,0-.47-1,1.54,1.54,0,0,0-2.05,0Z" transform="translate(-1.12 -5.5)" style="fill:#3c3c3b"/><path d="M281,50a1.6,1.6,0,0,1,.44,1.22v2.61h-.55v-.66a1.21,1.21,0,0,1-.56.51,1.87,1.87,0,0,1-.88.19,1.68,1.68,0,0,1-1.12-.34,1.15,1.15,0,0,1,0-1.75,1.88,1.88,0,0,1,1.23-.33h1.34v-.25a1.08,1.08,0,0,0-.3-.83,1.27,1.27,0,0,0-.89-.29,2.23,2.23,0,0,0-.77.14,1.63,1.63,0,0,0-.63.36l-.26-.42a2.06,2.06,0,0,1,.77-.42,2.94,2.94,0,0,1,.94-.15A1.78,1.78,0,0,1,281,50Zm-.64,3.2a1.31,1.31,0,0,0,.51-.64v-.69h-1.32c-.72,0-1.08.26-1.08.76a.68.68,0,0,0,.28.58,1.29,1.29,0,0,0,.78.21A1.49,1.49,0,0,0,280.38,53.18Z" transform="translate(-1.12 -5.5)" style="fill:#3c3c3b"/><path d="M289.49,50a1.85,1.85,0,0,1,.46,1.35v2.44h-.57V51.42a1.45,1.45,0,0,0-.32-1,1.15,1.15,0,0,0-.89-.34,1.33,1.33,0,0,0-1,.4,1.58,1.58,0,0,0-.38,1.12v2.21h-.57V51.42a1.44,1.44,0,0,0-.31-1,1.15,1.15,0,0,0-.9-.34,1.34,1.34,0,0,0-1,.4,1.58,1.58,0,0,0-.38,1.12v2.21H283V49.6h.55v.77a1.49,1.49,0,0,1,.62-.6,2.08,2.08,0,0,1,.92-.2,1.82,1.82,0,0,1,.92.22,1.42,1.42,0,0,1,.58.67,1.61,1.61,0,0,1,.66-.66,2.17,2.17,0,0,1,1-.23A1.67,1.67,0,0,1,289.49,50Z" transform="translate(-1.12 -5.5)" style="fill:#3c3c3b"/><path d="M273.5,64.3v.51h-4v-5.6h3.84v.51h-3.25v2H273v.51h-2.9V64.3Z" transform="translate(-1.12 -5.5)" style="fill:#3c3c3b"/><path d="M277.33,64.81,276,63.05l-1.34,1.76H274l1.66-2.16-1.58-2h.64L276,62.25l1.27-1.65h.62l-1.58,2L278,64.81Z" transform="translate(-1.12 -5.5)" style="fill:#3c3c3b"/><path d="M279.4,64.58a2,2,0,0,1-.77-.77,2.18,2.18,0,0,1-.28-1.11,2.12,2.12,0,0,1,.28-1.1,1.88,1.88,0,0,1,.77-.76,2.28,2.28,0,0,1,1.11-.27,2.21,2.21,0,0,1,1,.21,1.6,1.6,0,0,1,.67.62l-.42.29a1.32,1.32,0,0,0-.53-.47,1.66,1.66,0,0,0-1.52.05,1.36,1.36,0,0,0-.56.58,1.85,1.85,0,0,0,0,1.71,1.42,1.42,0,0,0,.56.58,1.74,1.74,0,0,0,.82.2,1.63,1.63,0,0,0,.7-.15,1.37,1.37,0,0,0,.53-.46l.42.28a1.59,1.59,0,0,1-.68.63,2.19,2.19,0,0,1-1,.21A2.28,2.28,0,0,1,279.4,64.58Z" transform="translate(-1.12 -5.5)" style="fill:#3c3c3b"/><path d="M286.61,61a1.75,1.75,0,0,1,.47,1.34v2.44h-.57V62.42a1.45,1.45,0,0,0-.32-1,1.23,1.23,0,0,0-.94-.34,1.46,1.46,0,0,0-1.08.4,1.54,1.54,0,0,0-.39,1.12v2.21h-.57V58.87h.57v2.47a1.48,1.48,0,0,1,.64-.57,2,2,0,0,1,.93-.2A1.7,1.7,0,0,1,286.61,61Z" transform="translate(-1.12 -5.5)" style="fill:#3c3c3b"/><path d="M291.36,61a1.56,1.56,0,0,1,.44,1.22v2.61h-.54v-.66a1.29,1.29,0,0,1-.57.51,1.84,1.84,0,0,1-.88.19,1.7,1.7,0,0,1-1.12-.34,1.15,1.15,0,0,1,0-1.75,1.9,1.9,0,0,1,1.24-.33h1.33v-.25a1.08,1.08,0,0,0-.3-.83,1.25,1.25,0,0,0-.89-.29,2.28,2.28,0,0,0-.77.14,1.79,1.79,0,0,0-.63.36l-.25-.42a2,2,0,0,1,.76-.42,3,3,0,0,1,1-.15A1.74,1.74,0,0,1,291.36,61Zm-.64,3.2a1.31,1.31,0,0,0,.51-.64v-.69h-1.32c-.72,0-1.08.26-1.08.76a.71.71,0,0,0,.28.58,1.3,1.3,0,0,0,.79.21A1.46,1.46,0,0,0,290.72,64.18Z" transform="translate(-1.12 -5.5)" style="fill:#3c3c3b"/><path d="M296.75,61a1.79,1.79,0,0,1,.47,1.34v2.44h-.57V62.42a1.4,1.4,0,0,0-.33-1,1.22,1.22,0,0,0-.93-.34,1.43,1.43,0,0,0-1.08.4,1.55,1.55,0,0,0-.4,1.12v2.21h-.56V60.6h.54v.78a1.54,1.54,0,0,1,.64-.6,2.12,2.12,0,0,1,1-.21A1.7,1.7,0,0,1,296.75,61Z" transform="translate(-1.12 -5.5)" style="fill:#3c3c3b"/><path d="M302.67,60.6v3.7a2.12,2.12,0,0,1-.52,1.58,2.15,2.15,0,0,1-1.58.52,3.68,3.68,0,0,1-1.11-.17,2.4,2.4,0,0,1-.85-.48l.29-.43a2.14,2.14,0,0,0,.74.42,2.76,2.76,0,0,0,.91.15,1.61,1.61,0,0,0,1.18-.37,1.56,1.56,0,0,0,.38-1.15v-.54a1.72,1.72,0,0,1-.7.61,2.09,2.09,0,0,1-.94.21,2.27,2.27,0,0,1-1.08-.26,2,2,0,0,1-.76-.73,2.1,2.1,0,0,1-.28-1.06,2.07,2.07,0,0,1,.28-1.06,1.88,1.88,0,0,1,.76-.72,2.24,2.24,0,0,1,1.08-.25,2.15,2.15,0,0,1,1,.21,1.85,1.85,0,0,1,.7.63V60.6ZM301.35,64a1.51,1.51,0,0,0,.57-.55,1.7,1.7,0,0,0,0-1.6,1.48,1.48,0,0,0-.57-.54,1.8,1.8,0,0,0-1.65,0,1.35,1.35,0,0,0-.57.54,1.61,1.61,0,0,0-.2.8,1.64,1.64,0,0,0,.2.8,1.51,1.51,0,0,0,.57.55,1.71,1.71,0,0,0,.82.19A1.75,1.75,0,0,0,301.35,64Z" transform="translate(-1.12 -5.5)" style="fill:#3c3c3b"/><path d="M307.93,62.88h-3.52a1.5,1.5,0,0,0,.5,1.06,1.69,1.69,0,0,0,1.16.4,1.71,1.71,0,0,0,.72-.14,1.59,1.59,0,0,0,.56-.41l.32.37a1.82,1.82,0,0,1-.7.51,2.47,2.47,0,0,1-2.07-.1,2,2,0,0,1-.78-.76,2.18,2.18,0,0,1-.28-1.11,2.21,2.21,0,0,1,.27-1.1,1.87,1.87,0,0,1,.74-.76,2.18,2.18,0,0,1,2.1,0,1.89,1.89,0,0,1,.72.76,2.21,2.21,0,0,1,.27,1.1Zm-3.05-1.44a1.53,1.53,0,0,0-.47,1h3a1.52,1.52,0,0,0-.46-1,1.45,1.45,0,0,0-1-.39A1.41,1.41,0,0,0,304.88,61.44Z" transform="translate(-1.12 -5.5)" style="fill:#3c3c3b"/><path d="M309.25,64.7a2.13,2.13,0,0,1-.74-.37l.26-.45a2.28,2.28,0,0,0,.66.34,2.63,2.63,0,0,0,.84.13,1.6,1.6,0,0,0,.85-.18.58.58,0,0,0,.27-.51.46.46,0,0,0-.15-.36.92.92,0,0,0-.38-.2,4.36,4.36,0,0,0-.62-.13,7.62,7.62,0,0,1-.82-.2,1.19,1.19,0,0,1-.53-.34.92.92,0,0,1-.22-.66,1,1,0,0,1,.44-.87,2,2,0,0,1,1.22-.33,2.94,2.94,0,0,1,.82.11,2.18,2.18,0,0,1,.67.28l-.25.46a2.14,2.14,0,0,0-1.24-.37,1.42,1.42,0,0,0-.82.2.59.59,0,0,0-.28.5.53.53,0,0,0,.16.39,1,1,0,0,0,.39.21l.64.14c.33.06.6.13.81.19a1.16,1.16,0,0,1,.52.33.91.91,0,0,1,.21.64,1,1,0,0,1-.46.87,2.13,2.13,0,0,1-1.27.33A3.14,3.14,0,0,1,309.25,64.7Z" transform="translate(-1.12 -5.5)" style="fill:#3c3c3b"/><path d="M319,59.72a1.92,1.92,0,0,1,0,2.81,2.52,2.52,0,0,1-1.68.51h-1.5v1.77h-.59v-5.6h2.09A2.52,2.52,0,0,1,319,59.72Zm-.42,2.44a1.29,1.29,0,0,0,.44-1,1.3,1.3,0,0,0-.44-1.05,2,2,0,0,0-1.27-.36h-1.49v2.8h1.49A2,2,0,0,0,318.58,62.16Z" transform="translate(-1.12 -5.5)" style="fill:#3c3c3b"/><path d="M321.37,64.57a2,2,0,0,1-.77-.76,2.18,2.18,0,0,1-.28-1.11,2.12,2.12,0,0,1,.28-1.1,1.94,1.94,0,0,1,.77-.76,2.36,2.36,0,0,1,2.19,0,1.94,1.94,0,0,1,.77.76,2.21,2.21,0,0,1,.27,1.1,2.28,2.28,0,0,1-.27,1.11,2,2,0,0,1-.77.76,2.28,2.28,0,0,1-2.19,0Zm1.9-.43a1.49,1.49,0,0,0,.56-.58,1.85,1.85,0,0,0,.2-.86,1.81,1.81,0,0,0-.2-.85,1.42,1.42,0,0,0-.56-.58,1.65,1.65,0,0,0-1.61,0,1.42,1.42,0,0,0-.56.58,1.7,1.7,0,0,0-.2.85,1.73,1.73,0,0,0,.2.86,1.49,1.49,0,0,0,.56.58,1.72,1.72,0,0,0,1.61,0Z" transform="translate(-1.12 -5.5)" style="fill:#3c3c3b"/><path d="M326.39,64.57a1.94,1.94,0,0,1-.77-.76,2.18,2.18,0,0,1-.28-1.11,2.12,2.12,0,0,1,.28-1.1,1.88,1.88,0,0,1,.77-.76,2.2,2.2,0,0,1,1.09-.27,2.24,2.24,0,0,1,1.1.27,1.92,1.92,0,0,1,.76.76,2.12,2.12,0,0,1,.28,1.1,2.18,2.18,0,0,1-.28,1.11,2,2,0,0,1-.76.76,2.14,2.14,0,0,1-1.1.28A2.11,2.11,0,0,1,326.39,64.57Zm1.9-.43a1.46,1.46,0,0,0,.55-.58,1.85,1.85,0,0,0,.2-.86,1.81,1.81,0,0,0-.2-.85,1.4,1.4,0,0,0-.55-.58,1.58,1.58,0,0,0-.81-.21,1.52,1.52,0,0,0-.8.21,1.36,1.36,0,0,0-.56.58,1.7,1.7,0,0,0-.21.85,1.74,1.74,0,0,0,.21.86,1.42,1.42,0,0,0,.56.58,1.61,1.61,0,0,0,.8.2A1.68,1.68,0,0,0,328.29,64.14Z" transform="translate(-1.12 -5.5)" style="fill:#3c3c3b"/><path d="M330.78,58.87h.57v5.94h-.57Z" transform="translate(-1.12 -5.5)" style="fill:#3c3c3b"/><path d="M270.13,70.72v2.2H273v.51h-2.9v2.38h-.59v-5.6h3.84v.51Z" transform="translate(-1.12 -5.5)" style="fill:#3c3c3b"/><path d="M275,75.57a2.08,2.08,0,0,1-.77-.76,2.29,2.29,0,0,1-.28-1.11,2.22,2.22,0,0,1,.28-1.1,2,2,0,0,1,.77-.76,2.24,2.24,0,0,1,1.1-.27,2.2,2.2,0,0,1,1.09.27,1.94,1.94,0,0,1,.77.76,2.21,2.21,0,0,1,.27,1.1,2.28,2.28,0,0,1-.27,1.11,2,2,0,0,1-.77.76,2.11,2.11,0,0,1-1.09.28A2.14,2.14,0,0,1,275,75.57Zm1.9-.43a1.49,1.49,0,0,0,.56-.58,1.85,1.85,0,0,0,.2-.86,1.81,1.81,0,0,0-.2-.85,1.42,1.42,0,0,0-.56-.58,1.54,1.54,0,0,0-.8-.21,1.58,1.58,0,0,0-.81.21,1.49,1.49,0,0,0-.56.58,1.81,1.81,0,0,0-.2.85,1.85,1.85,0,0,0,.2.86,1.56,1.56,0,0,0,.56.58,1.68,1.68,0,0,0,.81.2A1.64,1.64,0,0,0,276.86,75.14Z" transform="translate(-1.12 -5.5)" style="fill:#3c3c3b"/><path d="M283.15,71.6v4.21h-.55V75a1.6,1.6,0,0,1-.61.6,1.9,1.9,0,0,1-.9.21,1.82,1.82,0,0,1-1.3-.46,1.79,1.79,0,0,1-.48-1.35V71.6h.57V74a1.4,1.4,0,0,0,.33,1,1.24,1.24,0,0,0,.94.35,1.36,1.36,0,0,0,1-.41,1.54,1.54,0,0,0,.39-1.12V71.6Z" transform="translate(-1.12 -5.5)" style="fill:#3c3c3b"/><path d="M288.14,72a1.79,1.79,0,0,1,.47,1.34v2.44H288V73.42a1.4,1.4,0,0,0-.33-1,1.22,1.22,0,0,0-.93-.34,1.46,1.46,0,0,0-1.08.4,1.54,1.54,0,0,0-.39,1.12v2.21h-.57V71.6h.54v.78a1.57,1.57,0,0,1,.65-.6,2,2,0,0,1,.95-.21A1.7,1.7,0,0,1,288.14,72Z" transform="translate(-1.12 -5.5)" style="fill:#3c3c3b"/><path d="M294,69.87v5.94h-.54V75a1.76,1.76,0,0,1-.68.65,2,2,0,0,1-1,.23,2.15,2.15,0,0,1-1.07-.27,2,2,0,0,1-.75-.77,2.23,2.23,0,0,1-.27-1.11,2.28,2.28,0,0,1,.27-1.11,1.87,1.87,0,0,1,.75-.75,2.15,2.15,0,0,1,1.07-.27,2.05,2.05,0,0,1,.93.21,1.73,1.73,0,0,1,.67.62V69.87Zm-1.32,5.27a1.56,1.56,0,0,0,.56-.58,1.85,1.85,0,0,0,.2-.86,1.81,1.81,0,0,0-.2-.85,1.49,1.49,0,0,0-.56-.58,1.57,1.57,0,0,0-.8-.21,1.52,1.52,0,0,0-.8.21,1.36,1.36,0,0,0-.56.58,1.7,1.7,0,0,0-.21.85,1.74,1.74,0,0,0,.21.86,1.42,1.42,0,0,0,.56.58,1.61,1.61,0,0,0,.8.2A1.67,1.67,0,0,0,292.69,75.14Z" transform="translate(-1.12 -5.5)" style="fill:#3c3c3b"/><path d="M298.33,72a1.6,1.6,0,0,1,.44,1.22v2.61h-.54v-.66a1.29,1.29,0,0,1-.57.51,1.87,1.87,0,0,1-.88.19,1.68,1.68,0,0,1-1.12-.34,1.15,1.15,0,0,1,0-1.75,1.9,1.9,0,0,1,1.24-.33h1.33v-.25a1.08,1.08,0,0,0-.3-.83,1.25,1.25,0,0,0-.89-.29,2.23,2.23,0,0,0-.77.14,1.79,1.79,0,0,0-.63.36l-.26-.42a2.06,2.06,0,0,1,.77-.42,3,3,0,0,1,.95-.15A1.74,1.74,0,0,1,298.33,72Zm-.64,3.2a1.31,1.31,0,0,0,.51-.64v-.69h-1.32c-.72,0-1.08.26-1.08.76a.68.68,0,0,0,.28.58,1.3,1.3,0,0,0,.79.21A1.46,1.46,0,0,0,297.69,75.18Z" transform="translate(-1.12 -5.5)" style="fill:#3c3c3b"/><path d="M302.53,75.55a1,1,0,0,1-.4.22,1.57,1.57,0,0,1-.49.08,1.24,1.24,0,0,1-.91-.32,1.26,1.26,0,0,1-.32-.91V72.08h-.75V71.6h.75v-.92H301v.92h1.28v.48H301v2.51a.81.81,0,0,0,.18.57.73.73,0,0,0,.54.2,1,1,0,0,0,.35-.06.78.78,0,0,0,.28-.16Z" transform="translate(-1.12 -5.5)" style="fill:#3c3c3b"/><path d="M303.55,70.56a.4.4,0,0,1-.12-.29.38.38,0,0,1,.12-.28.44.44,0,0,1,.6,0,.36.36,0,0,1,.12.27.42.42,0,0,1-.72.3Zm0,1h.57v4.21h-.57Z" transform="translate(-1.12 -5.5)" style="fill:#3c3c3b"/><path d="M306.34,75.57a2,2,0,0,1-.77-.76,2.18,2.18,0,0,1-.28-1.11,2.12,2.12,0,0,1,.28-1.1,1.94,1.94,0,0,1,.77-.76,2.2,2.2,0,0,1,1.09-.27,2.24,2.24,0,0,1,1.1.27,1.85,1.85,0,0,1,.76.76,2.12,2.12,0,0,1,.28,1.1,2.18,2.18,0,0,1-.28,1.11,1.92,1.92,0,0,1-.76.76,2.14,2.14,0,0,1-1.1.28A2.11,2.11,0,0,1,306.34,75.57Zm1.9-.43a1.4,1.4,0,0,0,.55-.58,1.73,1.73,0,0,0,.2-.86,1.7,1.7,0,0,0-.2-.85,1.34,1.34,0,0,0-.55-.58,1.58,1.58,0,0,0-.81-.21,1.54,1.54,0,0,0-.8.21,1.42,1.42,0,0,0-.56.58,1.7,1.7,0,0,0-.2.85,1.73,1.73,0,0,0,.2.86,1.49,1.49,0,0,0,.56.58,1.64,1.64,0,0,0,.8.2A1.68,1.68,0,0,0,308.24,75.14Z" transform="translate(-1.12 -5.5)" style="fill:#3c3c3b"/><path d="M314.13,72a1.75,1.75,0,0,1,.47,1.34v2.44H314V73.42a1.4,1.4,0,0,0-.33-1,1.21,1.21,0,0,0-.93-.34,1.46,1.46,0,0,0-1.08.4,1.54,1.54,0,0,0-.39,1.12v2.21h-.57V71.6h.54v.78a1.57,1.57,0,0,1,.65-.6,2,2,0,0,1,.95-.21A1.7,1.7,0,0,1,314.13,72Z" transform="translate(-1.12 -5.5)" style="fill:#3c3c3b"/><path d="M274.22,81.21v5.6h-.49l-3.6-4.55v4.55h-.59v-5.6H270l3.6,4.54V81.21Z" transform="translate(-1.12 -5.5)" style="fill:#3c3c3b"/><path d="M279.59,84.88h-3.52a1.5,1.5,0,0,0,.5,1.06,1.66,1.66,0,0,0,1.15.4,1.71,1.71,0,0,0,.72-.14,1.54,1.54,0,0,0,.57-.41l.32.37a1.89,1.89,0,0,1-.7.51,2.32,2.32,0,0,1-.92.18,2.25,2.25,0,0,1-1.15-.28,1.9,1.9,0,0,1-.78-.76,2.18,2.18,0,0,1-.28-1.11,2.21,2.21,0,0,1,.27-1.1,1.85,1.85,0,0,1,.73-.76,2.18,2.18,0,0,1,2.1,0,1.91,1.91,0,0,1,.73.76,2.21,2.21,0,0,1,.26,1.1Zm-3.06-1.44a1.52,1.52,0,0,0-.46,1h3a1.53,1.53,0,0,0-.47-1,1.54,1.54,0,0,0-2.05,0Z" transform="translate(-1.12 -5.5)" style="fill:#3c3c3b"/><path d="M283,86.55a1,1,0,0,1-.4.22,1.57,1.57,0,0,1-.49.08,1.24,1.24,0,0,1-.91-.32,1.26,1.26,0,0,1-.32-.91V83.08h-.75V82.6h.75v-.92h.57v.92h1.28v.48h-1.28v2.51a.77.77,0,0,0,.19.57.7.7,0,0,0,.54.2,1,1,0,0,0,.34-.06.78.78,0,0,0,.28-.16Z" transform="translate(-1.12 -5.5)" style="fill:#3c3c3b"/><path d="M290.1,82.6l-1.59,4.21H288l-1.33-3.45-1.33,3.45h-.53l-1.59-4.21h.55l1.32,3.58,1.35-3.58h.49l1.34,3.58,1.34-3.58Z" transform="translate(-1.12 -5.5)" style="fill:#3c3c3b"/><path d="M291.46,86.57a2,2,0,0,1-.77-.76,2.18,2.18,0,0,1-.28-1.11,2.12,2.12,0,0,1,.28-1.1,1.94,1.94,0,0,1,.77-.76,2.2,2.2,0,0,1,1.09-.27,2.24,2.24,0,0,1,1.1.27,1.85,1.85,0,0,1,.76.76,2.12,2.12,0,0,1,.28,1.1,2.18,2.18,0,0,1-.28,1.11,1.92,1.92,0,0,1-.76.76,2.14,2.14,0,0,1-1.1.28A2.11,2.11,0,0,1,291.46,86.57Zm1.9-.43a1.4,1.4,0,0,0,.55-.58,1.73,1.73,0,0,0,.2-.86,1.7,1.7,0,0,0-.2-.85,1.34,1.34,0,0,0-.55-.58,1.58,1.58,0,0,0-.81-.21,1.54,1.54,0,0,0-.8.21,1.42,1.42,0,0,0-.56.58,1.7,1.7,0,0,0-.2.85,1.73,1.73,0,0,0,.2.86,1.49,1.49,0,0,0,.56.58,1.64,1.64,0,0,0,.8.2A1.68,1.68,0,0,0,293.36,86.14Z" transform="translate(-1.12 -5.5)" style="fill:#3c3c3b"/><path d="M297,82.78a2.06,2.06,0,0,1,1-.21v.55h-.14a1.36,1.36,0,0,0-1,.41,1.61,1.61,0,0,0-.37,1.14v2.15h-.57V82.6h.54v.82A1.49,1.49,0,0,1,297,82.78Z" transform="translate(-1.12 -5.5)" style="fill:#3c3c3b"/><path d="M300.55,84.7l-1,.91v1.2H299V80.87h.57v4l2.51-2.29h.71L301,84.32l2,2.49h-.7Z" transform="translate(-1.12 -5.5)" style="fill:#3c3c3b"/><path d="M309.79,81.72a1.92,1.92,0,0,1,0,2.81,2.52,2.52,0,0,1-1.68.51h-1.5v1.77H306v-5.6h2.09A2.52,2.52,0,0,1,309.79,81.72Zm-.42,2.44a1.29,1.29,0,0,0,.44-1,1.3,1.3,0,0,0-.44-1,2,2,0,0,0-1.27-.36h-1.49v2.8h1.49A2,2,0,0,0,309.37,84.16Z" transform="translate(-1.12 -5.5)" style="fill:#3c3c3b"/><path d="M312.16,86.57a2.08,2.08,0,0,1-.77-.76,2.29,2.29,0,0,1-.28-1.11,2.22,2.22,0,0,1,.28-1.1,2,2,0,0,1,.77-.76,2.24,2.24,0,0,1,1.1-.27,2.2,2.2,0,0,1,1.09.27,1.94,1.94,0,0,1,.77.76,2.21,2.21,0,0,1,.27,1.1,2.28,2.28,0,0,1-.27,1.11,2,2,0,0,1-.77.76,2.11,2.11,0,0,1-1.09.28A2.14,2.14,0,0,1,312.16,86.57Zm1.9-.43a1.49,1.49,0,0,0,.56-.58,1.85,1.85,0,0,0,.2-.86,1.81,1.81,0,0,0-.2-.85,1.42,1.42,0,0,0-.56-.58,1.54,1.54,0,0,0-.8-.21,1.58,1.58,0,0,0-.81.21,1.49,1.49,0,0,0-.56.58,1.81,1.81,0,0,0-.2.85,1.85,1.85,0,0,0,.2.86,1.56,1.56,0,0,0,.56.58,1.68,1.68,0,0,0,.81.2A1.64,1.64,0,0,0,314.06,86.14Z" transform="translate(-1.12 -5.5)" style="fill:#3c3c3b"/><path d="M317.18,86.57a2,2,0,0,1-.77-.76,2.18,2.18,0,0,1-.28-1.11,2.12,2.12,0,0,1,.28-1.1,1.94,1.94,0,0,1,.77-.76,2.2,2.2,0,0,1,1.09-.27,2.24,2.24,0,0,1,1.1.27,1.85,1.85,0,0,1,.76.76,2.12,2.12,0,0,1,.28,1.1,2.18,2.18,0,0,1-.28,1.11,1.92,1.92,0,0,1-.76.76,2.14,2.14,0,0,1-1.1.28A2.11,2.11,0,0,1,317.18,86.57Zm1.9-.43a1.4,1.4,0,0,0,.55-.58,1.73,1.73,0,0,0,.2-.86,1.7,1.7,0,0,0-.2-.85,1.34,1.34,0,0,0-.55-.58,1.58,1.58,0,0,0-.81-.21,1.54,1.54,0,0,0-.8.21,1.42,1.42,0,0,0-.56.58,1.7,1.7,0,0,0-.2.85,1.73,1.73,0,0,0,.2.86,1.49,1.49,0,0,0,.56.58,1.64,1.64,0,0,0,.8.2A1.68,1.68,0,0,0,319.08,86.14Z" transform="translate(-1.12 -5.5)" style="fill:#3c3c3b"/><path d="M321.57,80.87h.57v5.94h-.57Z" transform="translate(-1.12 -5.5)" style="fill:#3c3c3b"/><path d="M275.35,92.21v5.6h-.56V93.33l-2.2,3.77h-.28l-2.2-3.75v4.46h-.57v-5.6H270l2.43,4.15,2.41-4.15Z" transform="translate(-1.12 -5.5)" style="fill:#3c3c3b"/><path d="M279.79,94a1.56,1.56,0,0,1,.44,1.22v2.61h-.54v-.66a1.32,1.32,0,0,1-.56.51,1.91,1.91,0,0,1-.89.19,1.7,1.7,0,0,1-1.12-.34,1.17,1.17,0,0,1,0-1.75,1.9,1.9,0,0,1,1.24-.33h1.34v-.25a1.09,1.09,0,0,0-.31-.83,1.25,1.25,0,0,0-.89-.29,2.18,2.18,0,0,0-.76.14,1.75,1.75,0,0,0-.64.36l-.25-.42a2,2,0,0,1,.77-.42,2.89,2.89,0,0,1,.94-.15A1.74,1.74,0,0,1,279.79,94Zm-.64,3.2a1.38,1.38,0,0,0,.52-.64v-.69h-1.32c-.72,0-1.08.26-1.08.76a.68.68,0,0,0,.28.58,1.25,1.25,0,0,0,.78.21A1.46,1.46,0,0,0,279.15,97.18Z" transform="translate(-1.12 -5.5)" style="fill:#3c3c3b"/><path d="M282.92,93.78a2.06,2.06,0,0,1,1-.21v.55h-.14a1.36,1.36,0,0,0-1,.41,1.61,1.61,0,0,0-.37,1.14v2.15h-.57V93.6h.54v.82A1.38,1.38,0,0,1,282.92,93.78Z" transform="translate(-1.12 -5.5)" style="fill:#3c3c3b"/><path d="M286.48,95.7l-1,.91v1.2h-.57V91.87h.57v4L288,93.6h.71l-1.8,1.72,2,2.49h-.69Z" transform="translate(-1.12 -5.5)" style="fill:#3c3c3b"/><path d="M293.23,95.88H289.7a1.55,1.55,0,0,0,.51,1.06,1.66,1.66,0,0,0,1.15.4,1.71,1.71,0,0,0,.72-.14,1.54,1.54,0,0,0,.57-.41l.32.37a1.89,1.89,0,0,1-.7.51,2.32,2.32,0,0,1-.92.18,2.25,2.25,0,0,1-1.15-.28,1.9,1.9,0,0,1-.78-.76,2.18,2.18,0,0,1-.28-1.11,2.21,2.21,0,0,1,.27-1.1,1.85,1.85,0,0,1,.73-.76,2.18,2.18,0,0,1,2.1,0,1.91,1.91,0,0,1,.73.76,2.21,2.21,0,0,1,.26,1.1Zm-3.06-1.44a1.57,1.57,0,0,0-.47,1h3a1.53,1.53,0,0,0-.47-1,1.54,1.54,0,0,0-2.05,0Z" transform="translate(-1.12 -5.5)" style="fill:#3c3c3b"/><path d="M296.61,97.55a1,1,0,0,1-.4.22,1.57,1.57,0,0,1-.49.08,1.24,1.24,0,0,1-.91-.32,1.26,1.26,0,0,1-.32-.91V94.08h-.75V93.6h.75v-.92h.57v.92h1.28v.48h-1.28v2.51a.81.81,0,0,0,.18.57.74.74,0,0,0,.55.2,1,1,0,0,0,.34-.06.78.78,0,0,0,.28-.16Z" transform="translate(-1.12 -5.5)" style="fill:#3c3c3b"/><path d="M297.63,92.56a.4.4,0,0,1-.12-.29.38.38,0,0,1,.12-.28.43.43,0,0,1,.6,0,.36.36,0,0,1,.12.27.42.42,0,0,1-.72.3Zm0,1h.57v4.21h-.57Z" transform="translate(-1.12 -5.5)" style="fill:#3c3c3b"/><path d="M303.2,94a1.79,1.79,0,0,1,.47,1.34v2.44h-.57V95.42a1.4,1.4,0,0,0-.33-1,1.23,1.23,0,0,0-.94-.34,1.42,1.42,0,0,0-1.07.4,1.51,1.51,0,0,0-.4,1.12v2.21h-.57V93.6h.55v.78a1.54,1.54,0,0,1,.64-.6,2.12,2.12,0,0,1,1-.21A1.7,1.7,0,0,1,303.2,94Z" transform="translate(-1.12 -5.5)" style="fill:#3c3c3b"/><path d="M309.12,93.6v3.7a2.12,2.12,0,0,1-.52,1.58,2.15,2.15,0,0,1-1.58.52,3.68,3.68,0,0,1-1.11-.17,2.4,2.4,0,0,1-.85-.48l.29-.43a2,2,0,0,0,.74.42,2.76,2.76,0,0,0,.91.15,1.61,1.61,0,0,0,1.18-.37,1.56,1.56,0,0,0,.37-1.15v-.54a1.63,1.63,0,0,1-.69.61,2.11,2.11,0,0,1-.95.21,2.26,2.26,0,0,1-1.07-.26,1.91,1.91,0,0,1-.76-.73,2,2,0,0,1-.28-1.06,2,2,0,0,1,.28-1.06,1.86,1.86,0,0,1,.75-.72,2.26,2.26,0,0,1,1.08-.25,2.19,2.19,0,0,1,1,.21,1.85,1.85,0,0,1,.7.63V93.6ZM307.79,97a1.46,1.46,0,0,0,.58-.55,1.7,1.7,0,0,0,0-1.6,1.48,1.48,0,0,0-.57-.54,1.76,1.76,0,0,0-.83-.2,1.72,1.72,0,0,0-.82.2,1.35,1.35,0,0,0-.57.54,1.61,1.61,0,0,0-.2.8,1.64,1.64,0,0,0,.2.8,1.51,1.51,0,0,0,.57.55,1.86,1.86,0,0,0,1.64,0Z" transform="translate(-1.12 -5.5)" style="fill:#3c3c3b"/><path d="M270.13,103.72v2.2H273v.51h-2.9v2.38h-.59v-5.6h3.84v.51Z" transform="translate(-1.12 -5.5)" style="fill:#3c3c3b"/><path d="M278.13,104.6v4.21h-.54V108a1.62,1.62,0,0,1-.62.6,1.87,1.87,0,0,1-.9.21A1.62,1.62,0,0,1,274.3,107V104.6h.57V107a1.44,1.44,0,0,0,.32,1,1.24,1.24,0,0,0,.94.35,1.39,1.39,0,0,0,1.05-.41,1.58,1.58,0,0,0,.38-1.12V104.6Z" transform="translate(-1.12 -5.5)" style="fill:#3c3c3b"/><path d="M283.13,105a1.79,1.79,0,0,1,.46,1.34v2.44H283v-2.39a1.4,1.4,0,0,0-.33-1,1.23,1.23,0,0,0-.94-.34,1.42,1.42,0,0,0-1.07.4,1.51,1.51,0,0,0-.4,1.12v2.21h-.57V104.6h.55v.78a1.49,1.49,0,0,1,.64-.6,2.06,2.06,0,0,1,1-.21A1.73,1.73,0,0,1,283.13,105Z" transform="translate(-1.12 -5.5)" style="fill:#3c3c3b"/><path d="M289,102.87v5.94h-.54V108a1.7,1.7,0,0,1-.68.65,2,2,0,0,1-.94.23,2.16,2.16,0,0,1-1.08-.27,2,2,0,0,1-.75-.77,2.23,2.23,0,0,1-.27-1.11,2.28,2.28,0,0,1,.27-1.11,1.87,1.87,0,0,1,.75-.75,2.16,2.16,0,0,1,1.08-.27,2,2,0,0,1,.92.21,1.76,1.76,0,0,1,.68.62v-2.53Zm-1.32,5.27a1.49,1.49,0,0,0,.56-.58,1.73,1.73,0,0,0,.2-.86,1.7,1.7,0,0,0-.2-.85,1.42,1.42,0,0,0-.56-.58,1.54,1.54,0,0,0-.8-.21,1.57,1.57,0,0,0-.8.21,1.42,1.42,0,0,0-.56.58,1.7,1.7,0,0,0-.2.85,1.73,1.73,0,0,0,.2.86,1.49,1.49,0,0,0,.56.58,1.67,1.67,0,0,0,.8.2A1.64,1.64,0,0,0,287.67,108.14Z" transform="translate(-1.12 -5.5)" style="fill:#3c3c3b"/><path d="M290.57,103.56a.4.4,0,0,1-.12-.29.38.38,0,0,1,.12-.28.41.41,0,0,1,.3-.12.4.4,0,0,1,.29.12.36.36,0,0,1,.12.27.41.41,0,0,1-.12.3.4.4,0,0,1-.29.12A.41.41,0,0,1,290.57,103.56Zm0,1h.57v4.21h-.57Z" transform="translate(-1.12 -5.5)" style="fill:#3c3c3b"/><path d="M296.13,105a1.75,1.75,0,0,1,.47,1.34v2.44H296v-2.39a1.4,1.4,0,0,0-.33-1,1.21,1.21,0,0,0-.93-.34,1.46,1.46,0,0,0-1.08.4,1.54,1.54,0,0,0-.39,1.12v2.21h-.57V104.6h.54v.78a1.57,1.57,0,0,1,.65-.6,2,2,0,0,1,.95-.21A1.7,1.7,0,0,1,296.13,105Z" transform="translate(-1.12 -5.5)" style="fill:#3c3c3b"/><path d="M302.06,104.6v3.7a1.86,1.86,0,0,1-2.11,2.1,3.62,3.62,0,0,1-1.1-.17,2.44,2.44,0,0,1-.86-.48l.29-.43a2.14,2.14,0,0,0,.74.42,2.82,2.82,0,0,0,.92.15,1.6,1.6,0,0,0,1.17-.37,1.56,1.56,0,0,0,.38-1.15v-.54a1.76,1.76,0,0,1-.69.61,2.14,2.14,0,0,1-.95.21,2.3,2.3,0,0,1-1.08-.26,2,2,0,0,1-.76-.73,2.09,2.09,0,0,1-.27-1.06,2.06,2.06,0,0,1,.27-1.06,2,2,0,0,1,.76-.72,2.26,2.26,0,0,1,1.08-.25,2.19,2.19,0,0,1,1,.21,1.75,1.75,0,0,1,.69.63v-.81ZM300.73,108a1.38,1.38,0,0,0,.57-.55,1.63,1.63,0,0,0,0-1.6,1.35,1.35,0,0,0-.57-.54,1.78,1.78,0,0,0-1.64,0,1.24,1.24,0,0,0-.57.54,1.52,1.52,0,0,0-.21.8,1.54,1.54,0,0,0,.21.8,1.38,1.38,0,0,0,.57.55,1.68,1.68,0,0,0,.82.19A1.74,1.74,0,0,0,300.73,108Z" transform="translate(-1.12 -5.5)" style="fill:#3c3c3b"/><path d="M306.21,108.66a2.27,2.27,0,0,1-.88-.53l.23-.46a2.14,2.14,0,0,0,.81.49,2.82,2.82,0,0,0,1,.19,1.94,1.94,0,0,0,1.13-.27.86.86,0,0,0,.37-.72.77.77,0,0,0-.2-.54,1.57,1.57,0,0,0-.5-.31,7.34,7.34,0,0,0-.83-.23,8.84,8.84,0,0,1-1-.31,1.73,1.73,0,0,1-.65-.45,1.19,1.19,0,0,1-.27-.82,1.42,1.42,0,0,1,.23-.78,1.55,1.55,0,0,1,.69-.55,2.78,2.78,0,0,1,1.15-.21,3.33,3.33,0,0,1,.94.13,2.51,2.51,0,0,1,.79.37l-.19.47a2.75,2.75,0,0,0-.76-.35,2.64,2.64,0,0,0-.78-.12,1.82,1.82,0,0,0-1.11.29.87.87,0,0,0-.37.73.77.77,0,0,0,.2.54,1.45,1.45,0,0,0,.51.31l.83.24a7.82,7.82,0,0,1,1,.3,1.6,1.6,0,0,1,.64.44,1.21,1.21,0,0,1,.27.82,1.39,1.39,0,0,1-.23.77,1.58,1.58,0,0,1-.7.55,2.87,2.87,0,0,1-1.16.2A3.68,3.68,0,0,1,306.21,108.66Z" transform="translate(-1.12 -5.5)" style="fill:#3c3c3b"/><path d="M313.4,105a1.6,1.6,0,0,1,.44,1.22v2.61h-.54v-.66a1.29,1.29,0,0,1-.57.51,1.84,1.84,0,0,1-.88.19,1.7,1.7,0,0,1-1.12-.34,1.15,1.15,0,0,1,0-1.75,1.9,1.9,0,0,1,1.24-.33h1.33v-.25a1.08,1.08,0,0,0-.3-.83,1.25,1.25,0,0,0-.89-.29,2.23,2.23,0,0,0-.77.14,1.79,1.79,0,0,0-.63.36l-.26-.42a2.06,2.06,0,0,1,.77-.42,3,3,0,0,1,.95-.15A1.74,1.74,0,0,1,313.4,105Zm-.64,3.2a1.31,1.31,0,0,0,.51-.64v-.69H312c-.72,0-1.08.26-1.08.76a.71.71,0,0,0,.28.58,1.3,1.3,0,0,0,.79.21A1.46,1.46,0,0,0,312.76,108.18Z" transform="translate(-1.12 -5.5)" style="fill:#3c3c3b"/><path d="M315.39,102.87H316v5.94h-.56Z" transform="translate(-1.12 -5.5)" style="fill:#3c3c3b"/><path d="M321.2,106.88h-3.52a1.48,1.48,0,0,0,.51,1.06,1.65,1.65,0,0,0,1.15.4,1.71,1.71,0,0,0,.72-.14,1.51,1.51,0,0,0,.56-.41l.33.37a1.85,1.85,0,0,1-.71.51,2.47,2.47,0,0,1-2.07-.1,2,2,0,0,1-.78-.76,2.29,2.29,0,0,1-.28-1.11,2.21,2.21,0,0,1,.27-1.1,1.87,1.87,0,0,1,.74-.76,2.18,2.18,0,0,1,2.1,0,1.91,1.91,0,0,1,.73.76,2.32,2.32,0,0,1,.26,1.1Zm-3.05-1.44a1.53,1.53,0,0,0-.47,1h3a1.52,1.52,0,0,0-.46-1,1.45,1.45,0,0,0-1-.39A1.41,1.41,0,0,0,318.15,105.44Z" transform="translate(-1.12 -5.5)" style="fill:#3c3c3b"/><path d="M170.6,134.46v.39h-2.94v-.31l1.74-1.71a2.19,2.19,0,0,0,.45-.56,1.07,1.07,0,0,0,.12-.48.72.72,0,0,0-.26-.58,1.18,1.18,0,0,0-.73-.2,1.43,1.43,0,0,0-1.14.46l-.31-.26a1.53,1.53,0,0,1,.63-.44,2.13,2.13,0,0,1,.86-.16,1.59,1.59,0,0,1,1,.3,1,1,0,0,1,.37.84,1.51,1.51,0,0,1-.14.62,2.69,2.69,0,0,1-.55.69l-1.43,1.4Z" transform="translate(-1.12 -5.5)" style="fill:#3c3c3b"/><path d="M171.92,134.63a1.72,1.72,0,0,1-.59-.75,3.17,3.17,0,0,1,0-2.27,1.69,1.69,0,0,1,.59-.74,1.56,1.56,0,0,1,.87-.26,1.54,1.54,0,0,1,.87.26,1.79,1.79,0,0,1,.6.74,3.17,3.17,0,0,1,0,2.27,1.82,1.82,0,0,1-.6.75,1.53,1.53,0,0,1-.87.25A1.55,1.55,0,0,1,171.92,134.63Zm1.52-.35a1.28,1.28,0,0,0,.43-.59,2.4,2.4,0,0,0,.16-.94,2.49,2.49,0,0,0-.16-.95,1.39,1.39,0,0,0-.43-.59,1.11,1.11,0,0,0-.65-.2,1.08,1.08,0,0,0-.64.2,1.41,1.41,0,0,0-.44.59,2.71,2.71,0,0,0-.15.95,2.61,2.61,0,0,0,.15.94,1.3,1.3,0,0,0,.44.59,1,1,0,0,0,.64.21A1.05,1.05,0,0,0,173.44,134.28Z" transform="translate(-1.12 -5.5)" style="fill:#3c3c3b"/><path d="M177.46,132.8a1.12,1.12,0,0,1,.35.84,1.17,1.17,0,0,1-.18.64,1.11,1.11,0,0,1-.51.44,1.94,1.94,0,0,1-.84.16,2.72,2.72,0,0,1-.86-.14,1.75,1.75,0,0,1-.65-.4L175,134a1.63,1.63,0,0,0,.56.35,2,2,0,0,0,.74.14,1.25,1.25,0,0,0,.8-.23.82.82,0,0,0,0-1.23,1.35,1.35,0,0,0-.85-.22h-.3v-.32l1.16-1.46H175v-.38h2.7v.3l-1.19,1.5A1.54,1.54,0,0,1,177.46,132.8Z" transform="translate(-1.12 -5.5)" style="fill:#3c3c3b"/><path d="M179.22,134.63a1.72,1.72,0,0,1-.59-.75,3,3,0,0,1,0-2.27,1.69,1.69,0,0,1,.59-.74,1.57,1.57,0,0,1,1.73,0,1.65,1.65,0,0,1,.6.74,3,3,0,0,1,0,2.27,1.67,1.67,0,0,1-.6.75,1.62,1.62,0,0,1-1.73,0Zm1.51-.35a1.3,1.3,0,0,0,.44-.59,2.61,2.61,0,0,0,.15-.94,2.71,2.71,0,0,0-.15-.95,1.41,1.41,0,0,0-.44-.59,1.08,1.08,0,0,0-.64-.2,1.11,1.11,0,0,0-.65.2,1.39,1.39,0,0,0-.43.59,2.49,2.49,0,0,0-.16.95,2.4,2.4,0,0,0,.16.94,1.28,1.28,0,0,0,.43.59,1.05,1.05,0,0,0,.65.21A1,1,0,0,0,180.73,134.28Z" transform="translate(-1.12 -5.5)" style="fill:#3c3c3b"/><path d="M204.94,134.46v.39H202v-.31l1.75-1.71a1.92,1.92,0,0,0,.44-.56,1.07,1.07,0,0,0,.12-.48.72.72,0,0,0-.25-.58,1.2,1.2,0,0,0-.73-.2,1.45,1.45,0,0,0-1.15.46l-.3-.26a1.56,1.56,0,0,1,.62-.44,2.16,2.16,0,0,1,.86-.16,1.59,1.59,0,0,1,1,.3,1,1,0,0,1,.37.84,1.37,1.37,0,0,1-.14.62,2.69,2.69,0,0,1-.55.69l-1.42,1.4Z" transform="translate(-1.12 -5.5)" style="fill:#3c3c3b"/><path d="M206.26,134.63a1.72,1.72,0,0,1-.59-.75,3,3,0,0,1,0-2.27,1.69,1.69,0,0,1,.59-.74,1.57,1.57,0,0,1,1.73,0,1.65,1.65,0,0,1,.6.74,3,3,0,0,1,0,2.27,1.67,1.67,0,0,1-.6.75,1.62,1.62,0,0,1-1.73,0Zm1.51-.35a1.3,1.3,0,0,0,.44-.59,2.61,2.61,0,0,0,.15-.94,2.71,2.71,0,0,0-.15-.95,1.41,1.41,0,0,0-.44-.59,1.08,1.08,0,0,0-.64-.2,1.11,1.11,0,0,0-.65.2,1.39,1.39,0,0,0-.43.59,2.49,2.49,0,0,0-.16.95,2.4,2.4,0,0,0,.16.94,1.28,1.28,0,0,0,.43.59,1.05,1.05,0,0,0,.65.21A1,1,0,0,0,207.77,134.28Z" transform="translate(-1.12 -5.5)" style="fill:#3c3c3b"/><path d="M213,133.74h-.84v1.11h-.43v-1.11h-2.37v-.31l2.23-2.78h.48l-2.15,2.71h1.82v-1h.42v1H213Z" transform="translate(-1.12 -5.5)" style="fill:#3c3c3b"/><path d="M214.2,134.63a1.74,1.74,0,0,1-.6-.75,3.17,3.17,0,0,1,0-2.27,1.71,1.71,0,0,1,.6-.74,1.57,1.57,0,0,1,1.73,0,1.71,1.71,0,0,1,.6.74,3.17,3.17,0,0,1,0,2.27,1.74,1.74,0,0,1-.6.75,1.62,1.62,0,0,1-1.73,0Zm1.51-.35a1.3,1.3,0,0,0,.44-.59,2.61,2.61,0,0,0,.15-.94,2.71,2.71,0,0,0-.15-.95,1.41,1.41,0,0,0-.44-.59,1.14,1.14,0,0,0-1.29,0,1.32,1.32,0,0,0-.43.59,2.49,2.49,0,0,0-.16.95,2.4,2.4,0,0,0,.16.94,1.21,1.21,0,0,0,.43.59,1.1,1.1,0,0,0,1.29,0Z" transform="translate(-1.12 -5.5)" style="fill:#3c3c3b"/><path d="M237.72,134.46v.39h-2.95v-.31l1.75-1.71a2.19,2.19,0,0,0,.45-.56,1.2,1.2,0,0,0,.11-.48.72.72,0,0,0-.25-.58,1.18,1.18,0,0,0-.73-.2,1.46,1.46,0,0,0-1.15.46l-.3-.26a1.53,1.53,0,0,1,.63-.44,2.13,2.13,0,0,1,.86-.16,1.58,1.58,0,0,1,1,.3,1,1,0,0,1,.38.84,1.38,1.38,0,0,1-.15.62,2.42,2.42,0,0,1-.54.69l-1.43,1.4Z" transform="translate(-1.12 -5.5)" style="fill:#3c3c3b"/><path d="M239,134.63a1.72,1.72,0,0,1-.59-.75,3.17,3.17,0,0,1,0-2.27,1.69,1.69,0,0,1,.59-.74,1.59,1.59,0,0,1,1.74,0,1.69,1.69,0,0,1,.59.74,3,3,0,0,1,0,2.27,1.72,1.72,0,0,1-.59.75,1.64,1.64,0,0,1-1.74,0Zm1.51-.35a1.23,1.23,0,0,0,.44-.59,2.6,2.6,0,0,0,.16-.94,2.7,2.7,0,0,0-.16-.95,1.33,1.33,0,0,0-.44-.59,1.08,1.08,0,0,0-.64-.2,1.14,1.14,0,0,0-.65.2,1.39,1.39,0,0,0-.43.59,2.7,2.7,0,0,0-.16.95,2.6,2.6,0,0,0,.16.94,1.28,1.28,0,0,0,.43.59,1.07,1.07,0,0,0,.65.21A1,1,0,0,0,240.55,134.28Z" transform="translate(-1.12 -5.5)" style="fill:#3c3c3b"/><path d="M244.64,132.7a1.08,1.08,0,0,1,.42.91,1.29,1.29,0,0,1-.17.65,1.17,1.17,0,0,1-.52.46,1.88,1.88,0,0,1-.84.16,2.66,2.66,0,0,1-.85-.14,1.67,1.67,0,0,1-.65-.4l.21-.34a1.58,1.58,0,0,0,.55.35,2,2,0,0,0,.74.14,1.19,1.19,0,0,0,.8-.24.75.75,0,0,0,.29-.62.76.76,0,0,0-.32-.66,2.08,2.08,0,0,0-1.08-.22h-.9l.22-2.1h2.3V131h-1.93l-.14,1.34h.54A2.15,2.15,0,0,1,244.64,132.7Z" transform="translate(-1.12 -5.5)" style="fill:#3c3c3b"/><path d="M246.41,134.63a1.72,1.72,0,0,1-.59-.75,3,3,0,0,1,0-2.27,1.69,1.69,0,0,1,.59-.74,1.57,1.57,0,0,1,1.73,0,1.65,1.65,0,0,1,.6.74,3,3,0,0,1,0,2.27,1.67,1.67,0,0,1-.6.75,1.62,1.62,0,0,1-1.73,0Zm1.51-.35a1.3,1.3,0,0,0,.44-.59,2.61,2.61,0,0,0,.15-.94,2.71,2.71,0,0,0-.15-.95,1.41,1.41,0,0,0-.44-.59,1.08,1.08,0,0,0-.64-.2,1.11,1.11,0,0,0-.65.2,1.39,1.39,0,0,0-.43.59,2.49,2.49,0,0,0-.16.95,2.4,2.4,0,0,0,.16.94,1.28,1.28,0,0,0,.43.59,1.05,1.05,0,0,0,.65.21A1,1,0,0,0,247.92,134.28Z" transform="translate(-1.12 -5.5)" style="fill:#3c3c3b"/><path d="M19.7,134.46v.39H16.75v-.31l1.75-1.71a2.19,2.19,0,0,0,.45-.56,1.05,1.05,0,0,0,.11-.48.68.68,0,0,0-.25-.57,1.11,1.11,0,0,0-.73-.21,1.44,1.44,0,0,0-1.15.47l-.3-.27a1.53,1.53,0,0,1,.63-.44,2.13,2.13,0,0,1,.86-.16,1.58,1.58,0,0,1,1,.3,1,1,0,0,1,.38.84,1.38,1.38,0,0,1-.15.62,2.42,2.42,0,0,1-.54.69l-1.43,1.4Z" transform="translate(-1.12 -5.5)" style="fill:#3c3c3b"/><path d="M21,134.63a1.75,1.75,0,0,1-.59-.74,2.9,2.9,0,0,1-.21-1.14,2.83,2.83,0,0,1,.21-1.14,1.69,1.69,0,0,1,.59-.74,1.59,1.59,0,0,1,1.74,0,1.69,1.69,0,0,1,.59.74,2.67,2.67,0,0,1,.22,1.14,2.73,2.73,0,0,1-.22,1.14,1.75,1.75,0,0,1-.59.74,1.64,1.64,0,0,1-1.74,0Zm1.52-.35a1.28,1.28,0,0,0,.43-.59,2.84,2.84,0,0,0,0-1.88,1.37,1.37,0,0,0-.43-.6,1.16,1.16,0,0,0-1.3,0,1.37,1.37,0,0,0-.43.6,2.84,2.84,0,0,0,0,1.88,1.28,1.28,0,0,0,.43.59,1.11,1.11,0,0,0,1.3,0Z" transform="translate(-1.12 -5.5)" style="fill:#3c3c3b"/><path d="M27,134.46v.39H24.1v-.31l1.74-1.71a2.19,2.19,0,0,0,.45-.56,1.07,1.07,0,0,0,.12-.48.69.69,0,0,0-.26-.57,1.11,1.11,0,0,0-.73-.21,1.4,1.4,0,0,0-1.14.47l-.31-.27a1.59,1.59,0,0,1,.63-.44,2.13,2.13,0,0,1,.86-.16,1.59,1.59,0,0,1,1,.3,1,1,0,0,1,.37.84,1.51,1.51,0,0,1-.14.62,2.69,2.69,0,0,1-.55.69l-1.43,1.4Z" transform="translate(-1.12 -5.5)" style="fill:#3c3c3b"/><path d="M28.37,134.63a1.7,1.7,0,0,1-.6-.74,2.9,2.9,0,0,1-.21-1.14,2.83,2.83,0,0,1,.21-1.14,1.65,1.65,0,0,1,.6-.74,1.57,1.57,0,0,1,1.73,0,1.71,1.71,0,0,1,.6.74,2.83,2.83,0,0,1,.21,1.14,2.9,2.9,0,0,1-.21,1.14,1.77,1.77,0,0,1-.6.74,1.62,1.62,0,0,1-1.73,0Zm1.51-.35a1.21,1.21,0,0,0,.43-.59,2.84,2.84,0,0,0,0-1.88,1.29,1.29,0,0,0-.43-.6,1.14,1.14,0,0,0-1.29,0,1.38,1.38,0,0,0-.44.6,3,3,0,0,0,0,1.88,1.3,1.3,0,0,0,.44.59,1.1,1.1,0,0,0,1.29,0Z" transform="translate(-1.12 -5.5)" style="fill:#3c3c3b"/><path d="M42.43,134.46v.39h-3v-.31l1.75-1.71a2.19,2.19,0,0,0,.45-.56,1.2,1.2,0,0,0,.11-.48.68.68,0,0,0-.25-.57,1.11,1.11,0,0,0-.73-.21,1.44,1.44,0,0,0-1.15.47l-.3-.27a1.53,1.53,0,0,1,.63-.44,2.13,2.13,0,0,1,.86-.16,1.58,1.58,0,0,1,1,.3,1,1,0,0,1,.38.84,1.38,1.38,0,0,1-.15.62,2.42,2.42,0,0,1-.54.69l-1.43,1.4Z" transform="translate(-1.12 -5.5)" style="fill:#3c3c3b"/><path d="M43.75,134.63a1.75,1.75,0,0,1-.59-.74,2.9,2.9,0,0,1-.21-1.14,2.83,2.83,0,0,1,.21-1.14,1.69,1.69,0,0,1,.59-.74,1.59,1.59,0,0,1,1.74,0,1.69,1.69,0,0,1,.59.74,2.67,2.67,0,0,1,.22,1.14,2.73,2.73,0,0,1-.22,1.14,1.75,1.75,0,0,1-.59.74,1.64,1.64,0,0,1-1.74,0Zm1.51-.35a1.23,1.23,0,0,0,.44-.59,2.84,2.84,0,0,0,0-1.88,1.31,1.31,0,0,0-.44-.6,1.08,1.08,0,0,0-.64-.2,1.14,1.14,0,0,0-.65.2,1.37,1.37,0,0,0-.43.6,2.84,2.84,0,0,0,0,1.88,1.28,1.28,0,0,0,.43.59,1.07,1.07,0,0,0,.65.21A1,1,0,0,0,45.26,134.28Z" transform="translate(-1.12 -5.5)" style="fill:#3c3c3b"/><path d="M49.77,134.46v.39H46.83v-.31l1.74-1.71a2.19,2.19,0,0,0,.45-.56,1.07,1.07,0,0,0,.12-.48.69.69,0,0,0-.26-.57,1.11,1.11,0,0,0-.73-.21,1.4,1.4,0,0,0-1.14.47l-.31-.27a1.59,1.59,0,0,1,.63-.44,2.13,2.13,0,0,1,.86-.16,1.59,1.59,0,0,1,1,.3,1,1,0,0,1,.37.84,1.51,1.51,0,0,1-.14.62,2.69,2.69,0,0,1-.55.69l-1.43,1.4Z" transform="translate(-1.12 -5.5)" style="fill:#3c3c3b"/><path d="M51.48,130.65v4.2h-.43V131h-1v-.38Z" transform="translate(-1.12 -5.5)" style="fill:#3c3c3b"/><path d="M69.91,134.46v.39H67v-.31l1.75-1.71a2.11,2.11,0,0,0,.44-.56,1.07,1.07,0,0,0,.12-.48.69.69,0,0,0-.26-.57,1.1,1.1,0,0,0-.72-.21,1.41,1.41,0,0,0-1.15.47l-.31-.27a1.67,1.67,0,0,1,.63-.44,2.13,2.13,0,0,1,.86-.16,1.59,1.59,0,0,1,1,.3,1,1,0,0,1,.37.84,1.37,1.37,0,0,1-.14.62,2.69,2.69,0,0,1-.55.69l-1.42,1.4Z" transform="translate(-1.12 -5.5)" style="fill:#3c3c3b"/><path d="M71.23,134.63a1.77,1.77,0,0,1-.6-.74,2.9,2.9,0,0,1-.21-1.14,2.83,2.83,0,0,1,.21-1.14,1.71,1.71,0,0,1,.6-.74,1.57,1.57,0,0,1,1.73,0,1.71,1.71,0,0,1,.6.74,2.83,2.83,0,0,1,.22,1.14,2.9,2.9,0,0,1-.22,1.14,1.77,1.77,0,0,1-.6.74,1.62,1.62,0,0,1-1.73,0Zm1.51-.35a1.3,1.3,0,0,0,.44-.59,3,3,0,0,0,0-1.88,1.38,1.38,0,0,0-.44-.6,1.14,1.14,0,0,0-1.29,0,1.29,1.29,0,0,0-.43.6,2.84,2.84,0,0,0,0,1.88,1.21,1.21,0,0,0,.43.59,1.1,1.1,0,0,0,1.29,0Z" transform="translate(-1.12 -5.5)" style="fill:#3c3c3b"/><path d="M77.25,134.46v.39h-3v-.31l1.75-1.71a2.19,2.19,0,0,0,.45-.56,1.2,1.2,0,0,0,.11-.48.68.68,0,0,0-.25-.57,1.11,1.11,0,0,0-.73-.21,1.42,1.42,0,0,0-1.15.47l-.3-.27a1.56,1.56,0,0,1,.62-.44,2.2,2.2,0,0,1,.86-.16,1.59,1.59,0,0,1,1,.3,1,1,0,0,1,.38.84,1.38,1.38,0,0,1-.15.62,2.42,2.42,0,0,1-.54.69l-1.43,1.4Z" transform="translate(-1.12 -5.5)" style="fill:#3c3c3b"/><path d="M80.66,134.46v.39h-3v-.31l1.75-1.71a1.92,1.92,0,0,0,.44-.56,1.07,1.07,0,0,0,.12-.48.68.68,0,0,0-.25-.57A1.13,1.13,0,0,0,79,131a1.42,1.42,0,0,0-1.15.47l-.3-.27a1.56,1.56,0,0,1,.62-.44,2.16,2.16,0,0,1,.86-.16,1.59,1.59,0,0,1,1,.3,1,1,0,0,1,.38.84,1.38,1.38,0,0,1-.15.62,2.62,2.62,0,0,1-.54.69l-1.43,1.4Z" transform="translate(-1.12 -5.5)" style="fill:#3c3c3b"/><path d="M97.38,134.46v.39H94.43v-.31l1.75-1.71a2.19,2.19,0,0,0,.45-.56,1.2,1.2,0,0,0,.11-.48.72.72,0,0,0-.25-.58,1.18,1.18,0,0,0-.73-.2,1.46,1.46,0,0,0-1.15.46l-.3-.26a1.53,1.53,0,0,1,.63-.44,2.13,2.13,0,0,1,.86-.16,1.58,1.58,0,0,1,1,.3,1,1,0,0,1,.38.84,1.38,1.38,0,0,1-.15.62,2.42,2.42,0,0,1-.54.69l-1.43,1.4Z" transform="translate(-1.12 -5.5)" style="fill:#3c3c3b"/><path d="M98.7,134.63a1.72,1.72,0,0,1-.59-.75,3.17,3.17,0,0,1,0-2.27,1.69,1.69,0,0,1,.59-.74,1.59,1.59,0,0,1,1.74,0,1.69,1.69,0,0,1,.59.74,3,3,0,0,1,0,2.27,1.72,1.72,0,0,1-.59.75,1.64,1.64,0,0,1-1.74,0Zm1.51-.35a1.23,1.23,0,0,0,.44-.59,2.6,2.6,0,0,0,.16-.94,2.7,2.7,0,0,0-.16-.95,1.33,1.33,0,0,0-.44-.59,1.08,1.08,0,0,0-.64-.2,1.14,1.14,0,0,0-.65.2,1.39,1.39,0,0,0-.43.59,2.7,2.7,0,0,0-.16.95,2.6,2.6,0,0,0,.16.94,1.28,1.28,0,0,0,.43.59,1.07,1.07,0,0,0,.65.21A1,1,0,0,0,100.21,134.28Z" transform="translate(-1.12 -5.5)" style="fill:#3c3c3b"/><path d="M104.72,134.46v.39h-2.94v-.31l1.74-1.71a2.19,2.19,0,0,0,.45-.56,1.07,1.07,0,0,0,.12-.48.72.72,0,0,0-.26-.58,1.18,1.18,0,0,0-.73-.2,1.43,1.43,0,0,0-1.14.46l-.31-.26a1.59,1.59,0,0,1,.63-.44,2.13,2.13,0,0,1,.86-.16,1.59,1.59,0,0,1,1,.3,1,1,0,0,1,.37.84,1.51,1.51,0,0,1-.14.62,2.69,2.69,0,0,1-.55.69l-1.43,1.4Z" transform="translate(-1.12 -5.5)" style="fill:#3c3c3b"/><path d="M107.7,132.8a1.11,1.11,0,0,1,.34.84,1.25,1.25,0,0,1-.17.64,1.19,1.19,0,0,1-.52.44,1.89,1.89,0,0,1-.83.16,2.67,2.67,0,0,1-.86-.14,1.67,1.67,0,0,1-.65-.4l.21-.34a1.58,1.58,0,0,0,.55.35,2.08,2.08,0,0,0,.75.14,1.27,1.27,0,0,0,.8-.23.82.82,0,0,0,0-1.23,1.38,1.38,0,0,0-.86-.22h-.3v-.32l1.17-1.46h-2.15v-.38h2.7v.3l-1.19,1.5A1.57,1.57,0,0,1,107.7,132.8Z" transform="translate(-1.12 -5.5)" style="fill:#3c3c3b"/><path d="M124.85,134.46v.39h-2.94v-.31l1.75-1.71a2.35,2.35,0,0,0,.44-.56,1.07,1.07,0,0,0,.12-.48.69.69,0,0,0-.26-.57,1.11,1.11,0,0,0-.73-.21,1.4,1.4,0,0,0-1.14.47l-.31-.27a1.67,1.67,0,0,1,.63-.44,2.13,2.13,0,0,1,.86-.16,1.59,1.59,0,0,1,1,.3,1,1,0,0,1,.37.84,1.37,1.37,0,0,1-.14.62,2.69,2.69,0,0,1-.55.69l-1.43,1.4Z" transform="translate(-1.12 -5.5)" style="fill:#3c3c3b"/><path d="M126.18,134.63a1.77,1.77,0,0,1-.6-.74,2.9,2.9,0,0,1-.21-1.14,2.83,2.83,0,0,1,.21-1.14,1.71,1.71,0,0,1,.6-.74,1.57,1.57,0,0,1,1.73,0,1.71,1.71,0,0,1,.6.74,2.83,2.83,0,0,1,.21,1.14,2.9,2.9,0,0,1-.21,1.14,1.77,1.77,0,0,1-.6.74,1.62,1.62,0,0,1-1.73,0Zm1.51-.35a1.21,1.21,0,0,0,.43-.59,2.84,2.84,0,0,0,0-1.88,1.29,1.29,0,0,0-.43-.6,1.14,1.14,0,0,0-1.29,0,1.38,1.38,0,0,0-.44.6,3,3,0,0,0,0,1.88,1.3,1.3,0,0,0,.44.59,1.1,1.1,0,0,0,1.29,0Z" transform="translate(-1.12 -5.5)" style="fill:#3c3c3b"/><path d="M132.2,134.46v.39h-2.95v-.31l1.75-1.71a2.19,2.19,0,0,0,.45-.56,1.2,1.2,0,0,0,.11-.48.68.68,0,0,0-.25-.57,1.13,1.13,0,0,0-.73-.21,1.42,1.42,0,0,0-1.15.47l-.3-.27a1.56,1.56,0,0,1,.62-.44,2.16,2.16,0,0,1,.86-.16,1.59,1.59,0,0,1,1,.3,1,1,0,0,1,.38.84,1.38,1.38,0,0,1-.15.62,2.62,2.62,0,0,1-.54.69l-1.43,1.4Z" transform="translate(-1.12 -5.5)" style="fill:#3c3c3b"/><path d="M136.17,133.74h-.84v1.11h-.43v-1.11h-2.37v-.31l2.22-2.78h.49l-2.15,2.71h1.82v-1h.42v1h.84Z" transform="translate(-1.12 -5.5)" style="fill:#3c3c3b"/><path d="M151.65,134.46v.39h-2.94v-.31l1.74-1.71a2.19,2.19,0,0,0,.45-.56,1.07,1.07,0,0,0,.12-.48.72.72,0,0,0-.26-.58,1.18,1.18,0,0,0-.73-.2,1.43,1.43,0,0,0-1.14.46l-.31-.26a1.53,1.53,0,0,1,.63-.44,2.13,2.13,0,0,1,.86-.16,1.59,1.59,0,0,1,1,.3,1,1,0,0,1,.37.84,1.51,1.51,0,0,1-.14.62,2.69,2.69,0,0,1-.55.69l-1.43,1.4Z" transform="translate(-1.12 -5.5)" style="fill:#3c3c3b"/><path d="M153,134.63a1.67,1.67,0,0,1-.6-.75,3.17,3.17,0,0,1,0-2.27,1.65,1.65,0,0,1,.6-.74,1.57,1.57,0,0,1,1.73,0,1.79,1.79,0,0,1,.6.74,3.17,3.17,0,0,1,0,2.27,1.82,1.82,0,0,1-.6.75,1.62,1.62,0,0,1-1.73,0Zm1.51-.35a1.28,1.28,0,0,0,.43-.59,2.4,2.4,0,0,0,.16-.94,2.49,2.49,0,0,0-.16-.95,1.39,1.39,0,0,0-.43-.59,1.11,1.11,0,0,0-.65-.2,1.08,1.08,0,0,0-.64.2,1.41,1.41,0,0,0-.44.59,2.71,2.71,0,0,0-.15.95,2.61,2.61,0,0,0,.15.94,1.3,1.3,0,0,0,.44.59,1,1,0,0,0,.64.21A1.05,1.05,0,0,0,154.49,134.28Z" transform="translate(-1.12 -5.5)" style="fill:#3c3c3b"/><path d="M159,134.46v.39h-2.95v-.31l1.75-1.71a1.92,1.92,0,0,0,.44-.56,1.07,1.07,0,0,0,.12-.48.72.72,0,0,0-.25-.58,1.2,1.2,0,0,0-.73-.2,1.45,1.45,0,0,0-1.15.46l-.3-.26a1.56,1.56,0,0,1,.62-.44,2.16,2.16,0,0,1,.86-.16,1.59,1.59,0,0,1,1,.3,1,1,0,0,1,.38.84,1.38,1.38,0,0,1-.15.62,2.62,2.62,0,0,1-.54.69l-1.43,1.4Z" transform="translate(-1.12 -5.5)" style="fill:#3c3c3b"/><path d="M162,132.7a1.08,1.08,0,0,1,.42.91,1.29,1.29,0,0,1-.17.65,1.17,1.17,0,0,1-.52.46,1.88,1.88,0,0,1-.84.16,2.66,2.66,0,0,1-.85-.14,1.67,1.67,0,0,1-.65-.4l.21-.34a1.58,1.58,0,0,0,.55.35,2,2,0,0,0,.74.14,1.19,1.19,0,0,0,.8-.24.75.75,0,0,0,.29-.62.76.76,0,0,0-.32-.66,2.08,2.08,0,0,0-1.08-.22h-.9l.22-2.1h2.3V131h-1.93l-.14,1.34h.54A2.15,2.15,0,0,1,162,132.7Z" transform="translate(-1.12 -5.5)" style="fill:#3c3c3b"/><path d="M6.33,97.75v.39H3.38v-.31l1.75-1.71a2.37,2.37,0,0,0,.45-.56,1.2,1.2,0,0,0,.11-.48.72.72,0,0,0-.25-.58,1.18,1.18,0,0,0-.73-.2,1.45,1.45,0,0,0-1.15.46l-.3-.26a1.56,1.56,0,0,1,.62-.44,2.2,2.2,0,0,1,.86-.16,1.59,1.59,0,0,1,1,.3,1,1,0,0,1,.38.83,1.39,1.39,0,0,1-.15.63,2.42,2.42,0,0,1-.54.69L4,97.75Z" transform="translate(-1.12 -5.5)" style="fill:#3c3c3b"/><path d="M9.3,96a1.08,1.08,0,0,1,.42.91,1.29,1.29,0,0,1-.17.65A1.2,1.2,0,0,1,9,98a1.94,1.94,0,0,1-.84.16A2.72,2.72,0,0,1,7.34,98a1.67,1.67,0,0,1-.65-.4l.21-.34a1.58,1.58,0,0,0,.55.35,2,2,0,0,0,.74.14A1.22,1.22,0,0,0,9,97.54a.75.75,0,0,0,.28-.62A.76.76,0,0,0,9,96.26,2,2,0,0,0,7.88,96H7l.22-2.1H9.5v.38H7.58l-.15,1.34H8A2.15,2.15,0,0,1,9.3,96Z" transform="translate(-1.12 -5.5)" style="fill:#3c3c3b"/><path d="M10.41,95.87a1.21,1.21,0,0,1-.26-.82,1.23,1.23,0,0,1,.26-.83.83.83,0,0,1,.68-.31.86.86,0,0,1,.69.31,1.27,1.27,0,0,1,.26.83,1.24,1.24,0,0,1-.26.82.87.87,0,0,1-.69.32A.84.84,0,0,1,10.41,95.87Zm1.15-.18a1,1,0,0,0,.18-.64,1,1,0,0,0-.18-.64.53.53,0,0,0-.47-.23.57.57,0,0,0-.47.23,1,1,0,0,0-.17.64,1,1,0,0,0,.17.63.59.59,0,0,0,.94,0Zm2.08-1.75H14l-2.87,4.2h-.35ZM13,97.85a1.26,1.26,0,0,1-.26-.82A1.29,1.29,0,0,1,13,96.2a.86.86,0,0,1,.69-.31.83.83,0,0,1,.68.31,1.24,1.24,0,0,1,.27.83,1.21,1.21,0,0,1-.27.82.84.84,0,0,1-.68.32A.87.87,0,0,1,13,97.85Zm1.16-.19a1,1,0,0,0,.18-.63,1,1,0,0,0-.18-.64.6.6,0,0,0-.94,0A1,1,0,0,0,13,97a1,1,0,0,0,.18.64.56.56,0,0,0,.47.23A.54.54,0,0,0,14.14,97.66Z" transform="translate(-1.12 -5.5)" style="fill:#3c3c3b"/><path d="M5.89,66.67a1.1,1.1,0,0,1,.42.92,1.29,1.29,0,0,1-.17.65,1.13,1.13,0,0,1-.51.45,1.93,1.93,0,0,1-.84.17,2.47,2.47,0,0,1-.86-.15,1.88,1.88,0,0,1-.65-.39L3.49,68a1.68,1.68,0,0,0,.55.35,2,2,0,0,0,.74.13,1.28,1.28,0,0,0,.81-.23.78.78,0,0,0,.28-.63A.73.73,0,0,0,5.55,67a1.94,1.94,0,0,0-1.08-.22H3.58l.21-2.11h2.3V65H4.17L4,66.34h.54A2.11,2.11,0,0,1,5.89,66.67Z" transform="translate(-1.12 -5.5)" style="fill:#3c3c3b"/><path d="M7.66,68.6a1.69,1.69,0,0,1-.59-.74,3.17,3.17,0,0,1,0-2.27,1.72,1.72,0,0,1,.59-.75,1.64,1.64,0,0,1,1.74,0,1.72,1.72,0,0,1,.59.75,3,3,0,0,1,0,2.27,1.69,1.69,0,0,1-.59.74,1.59,1.59,0,0,1-1.74,0Zm1.52-.34a1.37,1.37,0,0,0,.43-.6,2.84,2.84,0,0,0,0-1.88,1.28,1.28,0,0,0-.43-.59A1.07,1.07,0,0,0,8.53,65a1,1,0,0,0-.64.21,1.23,1.23,0,0,0-.44.59,2.84,2.84,0,0,0,0,1.88,1.31,1.31,0,0,0,.44.6,1.08,1.08,0,0,0,.64.2A1.14,1.14,0,0,0,9.18,68.26Z" transform="translate(-1.12 -5.5)" style="fill:#3c3c3b"/><path d="M11,66.56a1.29,1.29,0,0,1-.26-.83,1.26,1.26,0,0,1,.26-.82.85.85,0,0,1,.69-.32.86.86,0,0,1,.68.31,1.24,1.24,0,0,1,.27.83,1.22,1.22,0,0,1-.27.83.91.91,0,0,1-1.37,0Zm1.16-.19a1,1,0,0,0,.18-.64,1,1,0,0,0-.18-.64.58.58,0,0,0-.47-.23.57.57,0,0,0-.48.24,1,1,0,0,0-.17.63,1.1,1.1,0,0,0,.17.64.59.59,0,0,0,.48.23A.56.56,0,0,0,12.19,66.37Zm2.07-1.75h.36l-2.87,4.2h-.36Zm-.65,3.92a1.24,1.24,0,0,1-.27-.83,1.21,1.21,0,0,1,.27-.82.84.84,0,0,1,.68-.32.86.86,0,0,1,.69.32,1.26,1.26,0,0,1,.26.82,1.29,1.29,0,0,1-.26.83.85.85,0,0,1-.69.31A.83.83,0,0,1,13.61,68.54Zm1.16-.19a1.1,1.1,0,0,0,.17-.64,1,1,0,0,0-.17-.63.57.57,0,0,0-.48-.24.58.58,0,0,0-.47.23,1,1,0,0,0-.18.64,1,1,0,0,0,.18.64.56.56,0,0,0,.47.23A.59.59,0,0,0,14.77,68.35Z" transform="translate(-1.12 -5.5)" style="fill:#3c3c3b"/><path d="M6.43,35.36v.3l-1.76,3.9H4.2l1.73-3.82H3.77v.79H3.34V35.36Z" transform="translate(-1.12 -5.5)" style="fill:#3c3c3b"/><path d="M9.31,37.41a1.08,1.08,0,0,1,.42.91,1.29,1.29,0,0,1-.17.65,1.09,1.09,0,0,1-.51.46,1.94,1.94,0,0,1-.84.16,2.72,2.72,0,0,1-.86-.14,1.75,1.75,0,0,1-.65-.4l.21-.34a1.68,1.68,0,0,0,.55.35,2,2,0,0,0,.74.14A1.22,1.22,0,0,0,9,39a.83.83,0,0,0,0-1.28,2,2,0,0,0-1.08-.22H7l.22-2.1h2.3v.38H7.59l-.14,1.34H8A2.11,2.11,0,0,1,9.31,37.41Z" transform="translate(-1.12 -5.5)" style="fill:#3c3c3b"/><path d="M10.42,37.29a1.21,1.21,0,0,1-.26-.82,1.23,1.23,0,0,1,.26-.83.84.84,0,0,1,.69-.31.86.86,0,0,1,.68.31,1.27,1.27,0,0,1,.26.83,1.24,1.24,0,0,1-.26.82.87.87,0,0,1-.68.32A.85.85,0,0,1,10.42,37.29Zm1.16-.18a1.1,1.1,0,0,0,.17-.64,1.08,1.08,0,0,0-.17-.64.56.56,0,0,0-.47-.23.59.59,0,0,0-.48.23,1.1,1.1,0,0,0-.17.64,1,1,0,0,0,.17.63.57.57,0,0,0,.48.24A.58.58,0,0,0,11.58,37.11Zm2.07-1.75H14l-2.86,4.2h-.36ZM13,39.27a1.26,1.26,0,0,1-.26-.82,1.29,1.29,0,0,1,.26-.83.92.92,0,0,1,1.38,0,1.29,1.29,0,0,1,.26.83,1.26,1.26,0,0,1-.26.82.9.9,0,0,1-1.38,0Zm1.16-.19a1,1,0,0,0,.18-.63,1,1,0,0,0-.18-.64.56.56,0,0,0-.47-.23.54.54,0,0,0-.47.23,1,1,0,0,0-.18.64,1,1,0,0,0,.18.64.57.57,0,0,0,.47.23A.54.54,0,0,0,14.15,39.08Z" transform="translate(-1.12 -5.5)" style="fill:#3c3c3b"/><path d="M2.54,5.53v4.2H2.11V5.92h-1V5.53Z" transform="translate(-1.12 -5.5)" style="fill:#3c3c3b"/><path d="M4.35,9.51a1.71,1.71,0,0,1-.6-.74,2.83,2.83,0,0,1-.21-1.14A2.81,2.81,0,0,1,3.75,6.5a1.74,1.74,0,0,1,.6-.75,1.51,1.51,0,0,1,.87-.25,1.5,1.5,0,0,1,.86.25,1.67,1.67,0,0,1,.6.75A2.81,2.81,0,0,1,6.9,7.63a2.83,2.83,0,0,1-.22,1.14,1.65,1.65,0,0,1-.6.74,1.57,1.57,0,0,1-1.73,0Zm1.51-.34a1.38,1.38,0,0,0,.44-.6,2.61,2.61,0,0,0,.15-.94,2.61,2.61,0,0,0-.15-.94,1.3,1.3,0,0,0-.44-.59,1.1,1.1,0,0,0-1.29,0,1.21,1.21,0,0,0-.43.59A2.4,2.4,0,0,0,4,7.63a2.4,2.4,0,0,0,.16.94,1.29,1.29,0,0,0,.43.6,1.14,1.14,0,0,0,1.29,0Z" transform="translate(-1.12 -5.5)" style="fill:#3c3c3b"/><path d="M8.32,9.51a1.69,1.69,0,0,1-.59-.74,2.67,2.67,0,0,1-.22-1.14A2.65,2.65,0,0,1,7.73,6.5a1.72,1.72,0,0,1,.59-.75,1.62,1.62,0,0,1,1.73,0,1.67,1.67,0,0,1,.6.75,2.81,2.81,0,0,1,.22,1.13,2.83,2.83,0,0,1-.22,1.14,1.65,1.65,0,0,1-.6.74,1.57,1.57,0,0,1-1.73,0Zm1.51-.34a1.38,1.38,0,0,0,.44-.6,2.61,2.61,0,0,0,.15-.94,2.61,2.61,0,0,0-.15-.94,1.3,1.3,0,0,0-.44-.59,1,1,0,0,0-.64-.21,1.05,1.05,0,0,0-.65.21,1.28,1.28,0,0,0-.43.59A2.4,2.4,0,0,0,8,7.63a2.4,2.4,0,0,0,.16.94,1.37,1.37,0,0,0,.43.6,1.11,1.11,0,0,0,.65.2A1.08,1.08,0,0,0,9.83,9.17Z" transform="translate(-1.12 -5.5)" style="fill:#3c3c3b"/><path d="M11.69,7.47a1.24,1.24,0,0,1-.27-.83,1.21,1.21,0,0,1,.27-.82.84.84,0,0,1,.68-.32.9.9,0,0,1,.69.31,1.29,1.29,0,0,1,.26.83,1.27,1.27,0,0,1-.26.83.86.86,0,0,1-.69.31A.83.83,0,0,1,11.69,7.47Zm1.15-.19A1,1,0,0,0,13,6.64,1,1,0,0,0,12.84,6a.56.56,0,0,0-.47-.23A.54.54,0,0,0,11.9,6a1,1,0,0,0-.18.63,1,1,0,0,0,.18.64.56.56,0,0,0,.47.23A.53.53,0,0,0,12.84,7.28Zm2.08-1.75h.35L12.4,9.73h-.35Zm-.66,3.92A1.29,1.29,0,0,1,14,8.62a1.26,1.26,0,0,1,.26-.82A.87.87,0,0,1,15,7.48a.84.84,0,0,1,.68.32,1.21,1.21,0,0,1,.26.82,1.23,1.23,0,0,1-.26.83.83.83,0,0,1-.68.31A.86.86,0,0,1,14.26,9.45Zm1.16-.19a1,1,0,0,0,.17-.64A1,1,0,0,0,15.42,8a.59.59,0,0,0-.94,0,1,1,0,0,0-.18.64,1,1,0,0,0,.18.64.53.53,0,0,0,.47.23A.57.57,0,0,0,15.42,9.26Z" transform="translate(-1.12 -5.5)" style="fill:#3c3c3b"/><path d="M133.39,107v-4.62l-2.27,3.81h-.8l-2.26-3.71V107h-1.67v-7.7h1.47l2.89,4.78,2.84-4.78H135l0,7.7Z" transform="translate(-1.12 -5.5)" style="fill:#fff"/><path d="M141.26,101.68a2.49,2.49,0,0,1,.74,2V107h-1.61v-.74a1.91,1.91,0,0,1-1.8.83,2.85,2.85,0,0,1-1.18-.23,1.82,1.82,0,0,1-.77-.64,1.71,1.71,0,0,1-.26-.93A1.53,1.53,0,0,1,137,104a3.14,3.14,0,0,1,1.92-.48h1.36a1.08,1.08,0,0,0-.34-.86,1.5,1.5,0,0,0-1-.3,3,3,0,0,0-.93.15,2.25,2.25,0,0,0-.77.4l-.62-1.2a3.54,3.54,0,0,1,1.16-.53,5.36,5.36,0,0,1,1.39-.19A3,3,0,0,1,141.26,101.68Zm-1.46,4.08a1.1,1.1,0,0,0,.48-.6v-.61h-1.17c-.71,0-1.06.23-1.06.7a.62.62,0,0,0,.26.52,1.15,1.15,0,0,0,.71.19A1.56,1.56,0,0,0,139.8,105.76Z" transform="translate(-1.12 -5.5)" style="fill:#fff"/><path d="M147.31,107,146,105.21,144.67,107H142.8l2.28-3-2.2-2.94h1.93l1.25,1.73,1.29-1.73h1.82L147,104l2.29,3Z" transform="translate(-1.12 -5.5)" style="fill:#fff"/><path d="M48.5,119.85a3.73,3.73,0,0,1-1.5-1.42,4.1,4.1,0,0,1,0-4.1,3.73,3.73,0,0,1,1.5-1.42,4.79,4.79,0,0,1,4-.16,3.56,3.56,0,0,1,1.35,1l-1.14,1.06a2.47,2.47,0,0,0-1.94-.9,2.54,2.54,0,0,0-1.27.31,2.23,2.23,0,0,0-.88.87,2.58,2.58,0,0,0-.31,1.28,2.52,2.52,0,0,0,.31,1.27,2.19,2.19,0,0,0,.88.88,2.54,2.54,0,0,0,1.27.31,2.45,2.45,0,0,0,1.94-.91L53.8,119a3.64,3.64,0,0,1-1.36,1,4.61,4.61,0,0,1-1.82.35A4.4,4.4,0,0,1,48.5,119.85Z" transform="translate(-1.12 -5.5)" style="fill:#fff"/><path d="M55,113.21a.92.92,0,0,1,0-1.36,1.06,1.06,0,0,1,.77-.28,1.11,1.11,0,0,1,.77.27.83.83,0,0,1,.3.66.94.94,0,0,1-.3.71,1.12,1.12,0,0,1-.77.28A1.1,1.1,0,0,1,55,113.21Zm-.09,1.1H56.6v5.92H54.88Z" transform="translate(-1.12 -5.5)" style="fill:#fff"/><path d="M60.66,114.44a3.22,3.22,0,0,1,1.21-.22v1.59a3.48,3.48,0,0,0-.39,0,1.54,1.54,0,0,0-1.15.41,1.65,1.65,0,0,0-.42,1.23v2.8H58.19v-5.92h1.64v.78A2,2,0,0,1,60.66,114.44Z" transform="translate(-1.12 -5.5)" style="fill:#fff"/><path d="M64,119.93a3,3,0,0,1-1.17-4.23A2.86,2.86,0,0,1,64,114.61a3.67,3.67,0,0,1,1.7-.39,3.32,3.32,0,0,1,1.64.39,2.34,2.34,0,0,1,1,1.12l-1.33.71a1.45,1.45,0,0,0-1.33-.81,1.54,1.54,0,0,0-1.11.44,1.86,1.86,0,0,0,0,2.4,1.54,1.54,0,0,0,1.11.44A1.44,1.44,0,0,0,67,118.1l1.33.72a2.34,2.34,0,0,1-1,1.1,3.32,3.32,0,0,1-1.64.4A3.67,3.67,0,0,1,64,119.93Z" transform="translate(-1.12 -5.5)" style="fill:#fff"/><path d="M75.3,114.31v5.92H73.67v-.71a2.18,2.18,0,0,1-.82.59,2.45,2.45,0,0,1-1,.21,2.56,2.56,0,0,1-1.85-.67,2.7,2.7,0,0,1-.68-2v-3.34H71v3.09c0,1,.4,1.43,1.2,1.43a1.28,1.28,0,0,0,1-.4,1.7,1.7,0,0,0,.37-1.19v-2.93Z" transform="translate(-1.12 -5.5)" style="fill:#fff"/><path d="M76.89,112.07h1.72v8.16H76.89Z" transform="translate(-1.12 -5.5)" style="fill:#fff"/><path d="M84.7,114.88a2.49,2.49,0,0,1,.74,2v3.38H83.83v-.74a1.91,1.91,0,0,1-1.8.83,2.82,2.82,0,0,1-1.18-.23,1.82,1.82,0,0,1-.77-.64,1.71,1.71,0,0,1-.26-.93,1.53,1.53,0,0,1,.62-1.29,3.12,3.12,0,0,1,1.92-.48h1.36a1.08,1.08,0,0,0-.34-.86,1.51,1.51,0,0,0-1-.3,2.92,2.92,0,0,0-.93.15,2.3,2.3,0,0,0-.78.4l-.61-1.2a3.54,3.54,0,0,1,1.16-.53,5.36,5.36,0,0,1,1.39-.19A3,3,0,0,1,84.7,114.88ZM83.24,119a1.1,1.1,0,0,0,.48-.6v-.61H82.55c-.71,0-1.06.23-1.06.7a.62.62,0,0,0,.26.52,1.15,1.15,0,0,0,.71.19A1.56,1.56,0,0,0,83.24,119Z" transform="translate(-1.12 -5.5)" style="fill:#fff"/><path d="M90.81,119.94a1.68,1.68,0,0,1-.62.28,2.88,2.88,0,0,1-.78.1,2.29,2.29,0,0,1-1.63-.54,2.06,2.06,0,0,1-.58-1.59v-2.43h-.91v-1.32h.91V113h1.71v1.44h1.48v1.32H88.91v2.41a.82.82,0,0,0,.2.58.69.69,0,0,0,.54.2,1.12,1.12,0,0,0,.7-.22Z" transform="translate(-1.12 -5.5)" style="fill:#fff"/><path d="M91.86,113.21a.94.94,0,0,1,0-1.36,1.07,1.07,0,0,1,.77-.28,1.1,1.1,0,0,1,.77.27.83.83,0,0,1,.3.66.94.94,0,0,1-.3.71,1.1,1.1,0,0,1-.77.28A1.12,1.12,0,0,1,91.86,113.21Zm-.08,1.1h1.71v5.92H91.78Z" transform="translate(-1.12 -5.5)" style="fill:#fff"/><path d="M100.46,114.88a2.64,2.64,0,0,1,.68,2v3.39H99.42V117.1a1.55,1.55,0,0,0-.31-1,1.12,1.12,0,0,0-.89-.34,1.34,1.34,0,0,0-1,.4,1.64,1.64,0,0,0-.39,1.19v2.93H95.09v-5.92h1.63V115a2.32,2.32,0,0,1,.85-.57,2.89,2.89,0,0,1,1.11-.21A2.43,2.43,0,0,1,100.46,114.88Z" transform="translate(-1.12 -5.5)" style="fill:#fff"/><path d="M108.86,114.31v4.93a3.15,3.15,0,0,1-.85,2.42,3.48,3.48,0,0,1-2.47.79,6.12,6.12,0,0,1-1.63-.21,3.62,3.62,0,0,1-1.28-.6l.68-1.24a2.75,2.75,0,0,0,1,.49,3.5,3.5,0,0,0,1.14.19,1.85,1.85,0,0,0,1.32-.41,1.59,1.59,0,0,0,.42-1.21v-.25a2.4,2.4,0,0,1-1.87.73,3.24,3.24,0,0,1-1.49-.35,2.74,2.74,0,0,1-1.07-1,3,3,0,0,1,0-3,2.67,2.67,0,0,1,1.07-1,3.13,3.13,0,0,1,1.49-.36,2.37,2.37,0,0,1,2,.85v-.76Zm-2.13,3.82a1.34,1.34,0,0,0,.43-1,1.37,1.37,0,0,0-.43-1,1.57,1.57,0,0,0-1.12-.4,1.59,1.59,0,0,0-1.12.4,1.37,1.37,0,0,0-.44,1,1.34,1.34,0,0,0,.44,1,1.59,1.59,0,0,0,1.12.41A1.58,1.58,0,0,0,106.73,118.13Z" transform="translate(-1.12 -5.5)" style="fill:#fff"/><path d="M114.45,120.11a4.16,4.16,0,0,1-1.37-.64l.61-1.34a4.26,4.26,0,0,0,1.17.58,4.36,4.36,0,0,0,1.37.22,2.19,2.19,0,0,0,1.12-.22.69.69,0,0,0,.36-.6.57.57,0,0,0-.21-.46,1.69,1.69,0,0,0-.55-.29,7.62,7.62,0,0,0-.91-.24,12.05,12.05,0,0,1-1.44-.42,2.3,2.3,0,0,1-1-.67,1.8,1.8,0,0,1-.4-1.23,2.16,2.16,0,0,1,.36-1.22,2.4,2.4,0,0,1,1.09-.86,4.37,4.37,0,0,1,1.79-.32,6.3,6.3,0,0,1,1.44.17,4.29,4.29,0,0,1,1.23.51l-.55,1.35a4.31,4.31,0,0,0-2.13-.6,2,2,0,0,0-1.11.24.74.74,0,0,0-.35.64.62.62,0,0,0,.41.59,7.3,7.3,0,0,0,1.26.38,11.51,11.51,0,0,1,1.44.41,2.44,2.44,0,0,1,1,.66,1.76,1.76,0,0,1,.4,1.22,2.15,2.15,0,0,1-.36,1.21A2.52,2.52,0,0,1,118,120a4.55,4.55,0,0,1-1.79.32A6.16,6.16,0,0,1,114.45,120.11Z" transform="translate(-1.12 -5.5)" style="fill:#fff"/><path d="M126.54,114.31v5.92h-1.62v-.71a2.18,2.18,0,0,1-.82.59,2.45,2.45,0,0,1-1,.21,2.56,2.56,0,0,1-1.85-.67,2.7,2.7,0,0,1-.68-2v-3.34h1.72v3.09c0,1,.4,1.43,1.19,1.43a1.25,1.25,0,0,0,1-.4,1.7,1.7,0,0,0,.38-1.19v-2.93Z" transform="translate(-1.12 -5.5)" style="fill:#fff"/><path d="M133.14,114.6a2.73,2.73,0,0,1,1.06,1.07,3.48,3.48,0,0,1,0,3.2,2.73,2.73,0,0,1-1.06,1.07,3,3,0,0,1-1.5.38,2.26,2.26,0,0,1-1.78-.72v2.76h-1.72v-8h1.64V115a2.27,2.27,0,0,1,1.86-.77A3,3,0,0,1,133.14,114.6Zm-.72,3.86a1.86,1.86,0,0,0,0-2.38,1.52,1.52,0,0,0-2.16,0,1.86,1.86,0,0,0,0,2.38,1.52,1.52,0,0,0,2.16,0Z" transform="translate(-1.12 -5.5)" style="fill:#fff"/><path d="M140.73,114.6a2.73,2.73,0,0,1,1.06,1.07,3.48,3.48,0,0,1,0,3.2,2.73,2.73,0,0,1-1.06,1.07,3,3,0,0,1-1.5.38,2.26,2.26,0,0,1-1.78-.72v2.76h-1.72v-8h1.64V115a2.27,2.27,0,0,1,1.86-.77A3,3,0,0,1,140.73,114.6Zm-.72,3.86a1.86,1.86,0,0,0,0-2.38,1.52,1.52,0,0,0-2.16,0,1.86,1.86,0,0,0,0,2.38,1.52,1.52,0,0,0,2.16,0Z" transform="translate(-1.12 -5.5)" style="fill:#fff"/><path d="M143.32,112.07H145v8.16h-1.72Z" transform="translate(-1.12 -5.5)" style="fill:#fff"/><path d="M152.5,114.31l-2.67,6.28a3.16,3.16,0,0,1-1,1.44,2.48,2.48,0,0,1-1.45.42,3.14,3.14,0,0,1-.91-.14,2,2,0,0,1-.74-.4l.63-1.22a1.48,1.48,0,0,0,.45.28,1.57,1.57,0,0,0,.51.09.89.89,0,0,0,.58-.17,1.52,1.52,0,0,0,.39-.56l0-.06-2.56-6h1.77l1.66,4,1.67-4Z" transform="translate(-1.12 -5.5)" style="fill:#fff"/></svg>